<svg width="166" height="53" viewBox="0 0 166 53" fill="none" xmlns="http://www.w3.org/2000/svg">
<rect y="0.417969" width="166" height="52" rx="8" fill="#508BCC"/>
<path d="M58 26.4531C58 18.7251 51.728 12.4531 44 12.4531C36.272 12.4531 30 18.7251 30 26.4531C30 33.2291 34.816 38.8711 41.2 40.1731V30.6531H38.4V26.4531H41.2V22.9531C41.2 20.2511 43.398 18.0531 46.1 18.0531H49.6V22.2531H46.8C46.03 22.2531 45.4 22.8831 45.4 23.6531V26.4531H49.6V30.6531H45.4V40.3831C52.47 39.6831 58 33.7191 58 26.4531Z" fill="white"/>
<path d="M66.3672 20.9414H74.3281V22.3477H67.9219V25.832H73.5547V27.1992H67.9219V32.418H66.3672V20.9414ZM76.8906 30.1914C76.8906 30.5977 77.0391 30.918 77.3359 31.1523C77.6328 31.3867 77.9844 31.5039 78.3906 31.5039C78.8854 31.5039 79.3646 31.3893 79.8281 31.1602C80.6094 30.7799 81 30.1576 81 29.293V28.1602C80.8281 28.2695 80.6068 28.3607 80.3359 28.4336C80.0651 28.5065 79.7995 28.5586 79.5391 28.5898L78.6875 28.6992C78.1771 28.7669 77.7943 28.8737 77.5391 29.0195C77.1068 29.2643 76.8906 29.6549 76.8906 30.1914ZM80.2969 27.3477C80.6198 27.306 80.8359 27.1706 80.9453 26.9414C81.0078 26.8164 81.0391 26.6367 81.0391 26.4023C81.0391 25.9232 80.8672 25.5768 80.5234 25.3633C80.1849 25.1445 79.6979 25.0352 79.0625 25.0352C78.3281 25.0352 77.8073 25.2331 77.5 25.6289C77.3281 25.8477 77.2161 26.1732 77.1641 26.6055H75.8516C75.8776 25.5742 76.2109 24.8581 76.8516 24.457C77.4974 24.0508 78.2448 23.8477 79.0938 23.8477C80.0781 23.8477 80.8776 24.0352 81.4922 24.4102C82.1016 24.7852 82.4062 25.3685 82.4062 26.1602V30.9805C82.4062 31.1263 82.4349 31.2435 82.4922 31.332C82.5547 31.4206 82.6823 31.4648 82.875 31.4648C82.9375 31.4648 83.0078 31.4622 83.0859 31.457C83.1641 31.4466 83.2474 31.4336 83.3359 31.418V32.457C83.1172 32.5195 82.9505 32.5586 82.8359 32.5742C82.7214 32.5898 82.5651 32.5977 82.3672 32.5977C81.8828 32.5977 81.5312 32.4258 81.3125 32.082C81.1979 31.8997 81.1172 31.6419 81.0703 31.3086C80.7839 31.6836 80.3724 32.0091 79.8359 32.2852C79.2995 32.5612 78.7083 32.6992 78.0625 32.6992C77.2865 32.6992 76.651 32.4648 76.1562 31.9961C75.6667 31.5221 75.4219 30.931 75.4219 30.2227C75.4219 29.4466 75.6641 28.8451 76.1484 28.418C76.6328 27.9909 77.2682 27.7279 78.0547 27.6289L80.2969 27.3477ZM87.9453 23.8086C88.888 23.8086 89.6536 24.0378 90.2422 24.4961C90.8359 24.9544 91.1927 25.7435 91.3125 26.8633H89.9453C89.862 26.3477 89.6719 25.9206 89.375 25.582C89.0781 25.2383 88.6016 25.0664 87.9453 25.0664C87.0495 25.0664 86.4089 25.5039 86.0234 26.3789C85.7734 26.9466 85.6484 27.6471 85.6484 28.4805C85.6484 29.319 85.8255 30.0247 86.1797 30.5977C86.5339 31.1706 87.0911 31.457 87.8516 31.457C88.4349 31.457 88.8958 31.2799 89.2344 30.9258C89.5781 30.5664 89.8151 30.0768 89.9453 29.457H91.3125C91.1562 30.5664 90.7656 31.3789 90.1406 31.8945C89.5156 32.4049 88.7161 32.6602 87.7422 32.6602C86.6484 32.6602 85.776 32.2617 85.125 31.4648C84.474 30.6628 84.1484 29.6628 84.1484 28.4648C84.1484 26.9961 84.5052 25.8529 85.2188 25.0352C85.9323 24.2174 86.8411 23.8086 87.9453 23.8086ZM96.2031 23.8633C96.7969 23.8633 97.3724 24.0039 97.9297 24.2852C98.487 24.5612 98.9115 24.9206 99.2031 25.3633C99.4844 25.7852 99.6719 26.2773 99.7656 26.8398C99.849 27.2253 99.8906 27.8398 99.8906 28.6836H93.7578C93.7839 29.5326 93.9844 30.2148 94.3594 30.7305C94.7344 31.2409 95.3151 31.4961 96.1016 31.4961C96.8359 31.4961 97.4219 31.2539 97.8594 30.7695C98.1094 30.4883 98.2865 30.1628 98.3906 29.793H99.7734C99.737 30.1003 99.6146 30.444 99.4062 30.8242C99.2031 31.1992 98.974 31.5065 98.7188 31.7461C98.2917 32.1628 97.763 32.444 97.1328 32.5898C96.7943 32.6732 96.4115 32.7148 95.9844 32.7148C94.9427 32.7148 94.0599 32.3372 93.3359 31.582C92.612 30.8216 92.25 29.7591 92.25 28.3945C92.25 27.0508 92.6146 25.9596 93.3438 25.1211C94.0729 24.2826 95.026 23.8633 96.2031 23.8633ZM98.4453 27.5664C98.388 26.957 98.2552 26.4701 98.0469 26.1055C97.6615 25.4284 97.0182 25.0898 96.1172 25.0898C95.4714 25.0898 94.9297 25.3242 94.4922 25.793C94.0547 26.2565 93.8229 26.8477 93.7969 27.5664H98.4453ZM101.516 20.9023H102.883V25.0664C103.19 24.6654 103.557 24.3607 103.984 24.1523C104.411 23.9388 104.875 23.832 105.375 23.832C106.417 23.832 107.26 24.1914 107.906 24.9102C108.557 25.6237 108.883 26.6784 108.883 28.0742C108.883 29.3971 108.562 30.4961 107.922 31.3711C107.281 32.2461 106.393 32.6836 105.258 32.6836C104.622 32.6836 104.086 32.5299 103.648 32.2227C103.388 32.0404 103.109 31.7487 102.812 31.3477V32.418H101.516V20.9023ZM105.172 31.4414C105.932 31.4414 106.5 31.1393 106.875 30.5352C107.255 29.931 107.445 29.1341 107.445 28.1445C107.445 27.2643 107.255 26.5352 106.875 25.957C106.5 25.3789 105.945 25.0898 105.211 25.0898C104.57 25.0898 104.008 25.3268 103.523 25.8008C103.044 26.2747 102.805 27.056 102.805 28.1445C102.805 28.931 102.904 29.569 103.102 30.0586C103.471 30.9805 104.161 31.4414 105.172 31.4414ZM113.852 31.5117C114.784 31.5117 115.422 31.1602 115.766 30.457C116.115 29.7487 116.289 28.9622 116.289 28.0977C116.289 27.3164 116.164 26.681 115.914 26.1914C115.518 25.4206 114.836 25.0352 113.867 25.0352C113.008 25.0352 112.383 25.3633 111.992 26.0195C111.602 26.6758 111.406 27.4674 111.406 28.3945C111.406 29.2852 111.602 30.0273 111.992 30.6211C112.383 31.2148 113.003 31.5117 113.852 31.5117ZM113.906 23.8086C114.984 23.8086 115.896 24.168 116.641 24.8867C117.385 25.6055 117.758 26.6628 117.758 28.0586C117.758 29.4076 117.43 30.5221 116.773 31.4023C116.117 32.2826 115.099 32.7227 113.719 32.7227C112.568 32.7227 111.654 32.3346 110.977 31.5586C110.299 30.7773 109.961 29.7305 109.961 28.418C109.961 27.0117 110.318 25.8919 111.031 25.0586C111.745 24.2253 112.703 23.8086 113.906 23.8086ZM122.758 31.5117C123.69 31.5117 124.328 31.1602 124.672 30.457C125.021 29.7487 125.195 28.9622 125.195 28.0977C125.195 27.3164 125.07 26.681 124.82 26.1914C124.424 25.4206 123.742 25.0352 122.773 25.0352C121.914 25.0352 121.289 25.3633 120.898 26.0195C120.508 26.6758 120.312 27.4674 120.312 28.3945C120.312 29.2852 120.508 30.0273 120.898 30.6211C121.289 31.2148 121.909 31.5117 122.758 31.5117ZM122.812 23.8086C123.891 23.8086 124.802 24.168 125.547 24.8867C126.292 25.6055 126.664 26.6628 126.664 28.0586C126.664 29.4076 126.336 30.5221 125.68 31.4023C125.023 32.2826 124.005 32.7227 122.625 32.7227C121.474 32.7227 120.56 32.3346 119.883 31.5586C119.206 30.7773 118.867 29.7305 118.867 28.418C118.867 27.0117 119.224 25.8919 119.938 25.0586C120.651 24.2253 121.609 23.8086 122.812 23.8086ZM128.312 20.9414H129.664V27.6055L133.273 24.0508H135.07L131.867 27.1836L135.25 32.418H133.453L130.844 28.1992L129.664 29.2773V32.418H128.312V20.9414Z" fill="white"/>
</svg>
