<svg width="383" height="213" viewBox="0 0 383 213" fill="none" xmlns="http://www.w3.org/2000/svg">
<path d="M0 188.369C20.3708 186.046 40.669 187.135 60.8704 189.941C82.2331 192.917 103.475 196.546 124.789 199.764C130.813 200.683 136.886 201.191 142.934 201.796C143.854 201.893 144.942 201.651 145.789 201.24C156.313 195.772 165.095 188.127 172.523 178.982C174.724 176.272 175.958 172.74 177.482 169.522C177.773 168.893 177.748 167.708 177.337 167.175C171.192 159.143 168.313 149.901 166.45 140.127C165.652 135.893 163.837 131.829 162.24 127.789C161.878 126.869 160.571 126.265 159.628 125.611C159.168 125.297 158.418 125.297 158.103 124.91C157.692 124.377 157.571 123.603 157.353 122.95C158.007 122.998 158.926 122.756 159.265 123.119C163.232 127.305 168.41 125.103 173.418 126.289C172.934 124.958 172.668 124.087 172.329 123.24C159.918 93.1196 142.426 66.4102 118.813 43.8136C112.499 37.7653 106.402 31.4992 100.475 25.0638C98.0314 22.4025 95.9749 19.2816 94.3056 16.0639C91.1605 10.0156 93.0476 5.53979 99.4588 3.14465C105.193 1.01563 111.217 0.676927 117.241 0.531767C136.16 0.0962873 154.716 2.34627 172.668 8.61234C192.676 15.58 209.78 26.7573 223.135 43.3782C226.28 47.2975 229.498 51.1442 232.643 55.0393C233.32 55.8619 233.853 56.2974 235.087 56.1039C237.288 55.7168 239.635 57.6038 240.748 59.9506C241.087 60.6764 241.812 61.5474 242.514 61.7651C244.619 62.3941 246.796 63.0231 248.974 63.1199C254.199 63.3618 259.425 63.4102 264.602 61.7893C264.481 61.1845 264.385 60.628 264.288 60.1199C264.433 60.0232 264.53 59.9264 264.651 59.878C266.707 58.9587 268.957 58.3054 270.796 57.0716C272.78 55.7168 274.667 55.1119 277.014 55.6442C278.538 56.0071 280.11 56.2006 281.683 56.2974C282.578 56.3458 283.497 56.0071 284.562 55.8135C284.247 55.2813 284.199 55.1119 284.102 55.0635C280.304 53.9023 280.183 53.9023 280.473 49.8136C280.643 47.491 281.126 45.1443 281.804 42.9185C282.409 40.9346 283.739 40.6685 285.505 41.7814C286.884 42.6524 288.53 43.3056 289.594 44.4911C290.634 45.6281 291.07 47.2975 291.82 48.8459C292.401 48.6765 293.272 48.4346 294.191 48.1684C294.868 45.7249 294.36 44.3943 292.062 43.4265C289.812 42.5072 287.489 41.7814 285.215 40.9588C284.417 40.6685 283.643 40.3782 282.868 40.0879C283.957 36.9911 283.933 37.0395 286.715 38.0556C288.457 38.6847 290.247 39.2895 292.038 39.6766C295.425 40.4024 297.554 42.4588 298.304 45.7249C299.005 48.8458 297.36 50.9991 294.892 52.7894C293.852 53.5394 293.272 54.87 292.376 56.0797C292.159 55.7651 291.917 55.378 291.651 54.991C291.433 54.991 291.215 54.991 290.973 54.991C290.852 56.8296 290.755 58.6683 290.634 60.4828C290.925 60.5312 291.215 60.5796 291.481 60.6522C291.772 59.878 292.062 59.0796 292.497 57.8216C295.038 62.0796 297.675 66.0473 299.755 70.2569C300.409 71.5392 299.901 73.6682 299.392 75.2166C297.965 79.5956 295.159 83.1278 291.747 86.2003C290.272 87.531 288.796 88.8858 287.368 90.1922C289.159 94.6922 288.868 96.0228 285.094 99.0228C283.836 100.015 283.231 101.128 282.82 102.676C281.199 108.749 279.506 114.797 275.973 120.192C275.199 121.377 275.538 123.579 275.876 125.2C277.304 131.853 279.215 138.41 280.449 145.087C281.465 150.603 284.417 153.143 289.812 154.716C302.852 158.49 315.868 162.119 329.441 163.232C333.844 163.595 338.32 163.546 342.723 163.184C345.892 162.917 349.594 162.942 350.876 158.103C351.166 159.167 351.408 159.579 351.336 159.917C350.465 163.885 349.666 167.877 348.65 171.796C347.344 176.829 344.537 180.845 340.255 183.893C334.618 187.909 328.57 191.103 322.062 193.474C321.529 193.667 321.021 193.861 320.513 194.248C325.134 194.707 329.537 196.401 334.376 195.046C345.505 191.901 356.658 192.675 367.69 195.675C368.924 196.014 370.11 196.57 371.247 197.127C371.61 197.32 372.093 197.974 371.997 198.264C371.876 198.699 371.343 199.256 370.884 199.353C369.698 199.619 368.464 199.861 367.279 199.764C356.997 198.965 346.715 198.191 336.457 197.175C332.852 196.812 329.465 196.909 325.933 197.974C318.263 200.296 310.497 202.328 302.731 204.336C290.03 207.627 277.473 206.804 265.014 202.812C257.102 200.272 249.119 197.998 241.183 195.506C227.708 191.296 214.063 191.272 200.393 194.175C191.926 195.965 183.506 198.022 175.111 200.224C166.498 202.473 157.789 203.756 148.958 202.885C144.652 202.473 141.216 204.24 137.031 205.74C156.41 211.812 175.256 213.554 194.031 205.401C197.442 203.925 200.974 202.715 204.434 201.336C214.837 197.199 225.337 197.732 235.885 200.611C242.441 202.401 249.022 204.191 255.482 206.32C273.215 212.151 290.997 212.901 309.263 208.522C321.844 205.522 334.69 203.417 347.489 201.603C358.473 200.03 369.529 200.804 380.367 203.441C380.997 203.586 381.601 203.78 382.206 203.998C382.303 204.022 382.351 204.215 382.497 204.482C382.206 204.506 381.94 204.627 381.722 204.554C366.795 200.586 351.747 201.046 336.723 203.659C324.795 205.74 312.965 208.256 301.11 210.772C286.522 213.869 272.344 211.909 258.264 207.893C248.417 205.086 238.546 202.353 228.627 199.933C220.208 197.877 211.982 199.328 203.95 202.304C197.03 204.869 190.184 207.675 183.119 209.683C170.418 213.312 157.692 211.74 145.087 208.764C144.531 208.643 143.974 208.522 143.418 208.352C138.773 206.828 134.176 205.885 129.144 207.022C126.773 207.554 124.039 206.804 121.547 206.369C120.749 206.223 120.12 205.183 119.418 204.554C120.289 204.07 121.184 203.127 122.031 203.175C125.37 203.417 128.829 203.514 131.975 204.53C135.797 205.764 138.749 204.264 141.966 202.643C138.483 202.232 134.975 201.965 131.515 201.433C115.16 198.917 98.8298 196.328 82.4751 193.764C60.5801 190.304 38.6367 187.474 16.4031 188.03M258.554 89.7568C257.998 89.0068 257.611 88.4019 257.151 87.8697C255.143 85.5471 252.965 83.3697 251.127 80.9262C248.659 77.7085 246.361 74.3214 244.135 70.9344C241.812 67.4505 239.054 64.7893 234.82 63.5796C231.772 62.7086 231.24 61.0877 232.522 58.1119C233.03 56.9264 232.716 56.2974 232.038 55.499C228.53 51.241 225.022 46.983 221.538 42.7007C211.764 30.725 199.789 21.6042 185.902 14.9026C162.724 3.72529 138.144 0.193062 112.717 1.5237C108.12 1.76563 103.451 2.73336 99.0959 4.16077C93.6766 5.95107 92.1766 9.96716 94.6443 15.0962C96.0959 18.0961 97.8862 21.0719 100.136 23.5154C106.185 30.1202 112.354 36.6282 118.838 42.7975C141.942 64.7651 159.144 90.7245 171.773 119.853C172.644 121.886 172.958 124.692 174.506 125.732C176.152 126.845 178.934 126.313 181.208 126.434C196.111 127.184 210.942 128.611 225.385 132.555C231.796 134.297 238.111 136.353 244.28 138.216C244.038 137.006 243.699 135.724 243.53 134.442C242.683 128.248 241.667 122.127 239.345 116.273C238.57 114.289 238.208 112.136 237.724 110.055C237.216 107.902 237.772 106.16 239.635 104.781C242.901 102.337 246.095 99.7728 249.288 97.2325C252.361 94.7648 255.409 92.2971 258.554 89.7568ZM317.102 194.538C317.126 194.393 317.126 194.224 317.15 194.078C317.392 193.957 317.634 193.812 317.9 193.764C326.707 191.683 334.473 187.449 341.513 181.885C347.827 176.901 348.674 169.546 349.811 162.337C347.513 162.893 345.432 163.74 343.352 163.788C337.57 163.909 331.739 164.103 326.005 163.522C312.312 162.167 299.15 158.442 286.159 154.038C285.336 153.772 284.514 153.53 283.328 153.167C284.538 156.313 287.03 156.966 289.255 157.74C302.296 162.24 315.578 165.675 329.441 166.425C330.578 166.498 331.715 166.716 332.852 166.861C332.852 167.103 332.828 167.345 332.828 167.563C331.957 167.635 331.086 167.853 330.263 167.756C326.707 167.345 323.174 166.643 319.618 166.45C303.191 165.506 287.247 162.264 271.909 156.24C245.514 145.837 218.224 138.942 190.208 134.781C185.853 134.127 181.426 133.837 176.708 133.353C177.265 135.555 177.7 137.2 178.087 138.845C179.273 143.853 179.248 143.901 184.402 144.071C199.135 144.506 213.337 147.095 227.079 152.853C235.087 156.216 243.53 159.046 252.022 160.692C272.901 164.756 293.925 167.998 314.9 171.554C317.683 172.014 320.465 172.377 323.271 172.788C323.295 173.03 323.295 173.272 323.32 173.49C321.699 173.829 320.078 174.264 318.433 174.482C302.03 176.635 285.626 175.933 269.393 173.321C250.812 170.321 232.353 166.474 213.821 163.111C205.45 161.587 197.03 160.28 188.611 158.974C187.353 158.78 185.998 159.046 184.135 159.143C184.934 159.845 185.2 160.232 185.539 160.377C188.635 161.708 191.66 163.184 194.853 164.272C217.885 172.111 241.474 177.772 265.352 182.296C288.772 186.748 311.828 185.901 334.4 177.675C334.884 177.506 335.44 177.458 336.626 177.24C335.779 178.377 335.416 179.151 334.836 179.635C333.166 180.99 331.497 182.369 329.658 183.458C319.4 189.578 308.417 193.353 296.392 193.885C269.659 195.07 243.119 192.966 216.772 188.611C205.982 186.82 195.748 183.433 187.014 176.562C184.111 174.264 181.474 171.627 178.813 169.232C172.668 184.401 159.918 193.304 146.345 202.207C151.063 202.207 155.2 202.353 159.337 202.159C162.265 202.014 165.216 201.651 168.047 201.022C179.006 198.53 189.893 195.699 200.877 193.353C214.329 190.474 227.756 190.546 241.038 194.659C249.457 197.272 257.901 199.788 266.32 202.353C276.336 205.401 286.546 206.949 296.852 204.651C307.255 202.353 317.513 199.401 327.844 196.715C327.965 196.691 328.037 196.425 328.182 196.183C326.223 195.917 324.384 195.699 322.545 195.433C320.683 195.167 318.892 194.828 317.102 194.538ZM334.666 178.909C334.545 178.764 334.424 178.619 334.303 178.498C333.771 178.667 333.239 178.837 332.707 179.03C314.029 185.538 294.82 187.328 275.296 184.57C248.224 180.724 221.804 173.95 195.821 165.458C192.289 164.296 188.902 162.748 185.49 161.248C184.74 160.909 184.256 160.014 183.652 159.385C184.523 159.022 185.393 158.296 186.24 158.321C189.168 158.393 192.143 158.466 194.998 159.022C215.2 162.821 235.353 166.788 255.554 170.562C273.917 173.974 292.425 175.861 311.126 174.603C314.054 174.409 316.981 173.998 319.933 173.683C319.618 173.127 319.328 173.006 318.989 172.958C304.763 170.78 290.513 168.724 276.312 166.401C259.546 163.667 242.828 160.546 227.103 153.845C214.329 148.401 201.119 145.45 187.305 145.039C184.692 144.966 182.079 144.797 179.297 144.651C179.418 145.716 179.515 146.49 179.611 147.264C180.458 153.482 180.627 159.7 179.248 165.845C178.91 167.369 179.224 168.361 180.216 169.474C188.49 178.619 198.845 184.208 210.796 186.651C237.796 192.167 265.11 193.957 292.642 193.401C306.07 193.135 318.505 189.578 329.876 182.441C331.545 181.353 333.07 180.07 334.666 178.909ZM267.07 97.9341C266.756 98.1518 266.441 98.3696 266.127 98.5873C263.731 95.8535 261.336 93.1196 259.014 90.4584C253.498 94.789 248.078 99.0228 242.683 103.257C237.53 107.297 237.458 107.539 239.345 113.926C240.482 117.773 241.837 121.547 242.78 125.442C243.554 128.708 243.82 132.095 244.425 135.385C244.57 136.184 245.054 137.369 245.659 137.587C248.586 138.603 251.611 139.353 254.272 140.103C253.232 135.579 252.191 131.224 251.223 126.845C250.546 123.773 250.014 120.676 249.264 117.603C248.949 116.248 248.224 115.136 246.457 115.208C245.78 115.232 245.078 114.7 244.377 114.41C244.377 114.095 244.401 113.781 244.401 113.466C250.812 115.619 255.965 113.394 260.78 109.765C258.457 105.99 258.046 102.192 258.772 98.176C262.28 101.007 263.49 104.587 262.352 109.402C265.473 106.982 267.675 103.668 272.127 104.539C271.788 105.337 271.11 105.724 270.433 106.087C268.546 107.103 266.586 108.023 264.796 109.184C263.925 109.765 262.788 110.732 262.691 111.603C262.28 115.644 261.481 119.829 262.135 123.748C263.102 129.579 265.183 135.216 266.828 140.926C267.119 141.869 267.699 142.74 268.159 143.66C268.352 143.587 268.546 143.49 268.739 143.418C268.401 142.208 268.062 140.998 267.699 139.789C266.586 136.014 265.256 132.289 264.361 128.466C263.127 123.289 264.869 119.007 269.102 115.789C270.651 114.628 272.272 113.587 273.844 112.45C274.473 112.015 275.054 111.531 275.78 110.974C275.368 110.49 275.126 110.152 274.812 109.886C272.683 108.023 272.635 107.781 274.764 106.015C276.796 104.321 278.925 102.749 281.006 101.079C281.586 100.62 282.046 99.9906 282.554 99.4583C281.804 98.9986 281.102 98.3696 280.304 98.1035C278.054 97.4019 275.707 96.9906 273.457 96.2648C270.53 95.297 267.675 94.1116 264.844 93.0471C265.594 94.668 266.32 96.289 267.07 97.9341ZM309.675 165.119C309.699 164.877 309.723 164.611 309.771 164.369C308.949 164.175 308.102 164.006 307.304 163.764C300.578 161.756 293.852 159.796 287.175 157.692C285.118 157.038 283.352 155.829 282.554 153.53C282.36 152.95 281.441 152.49 280.764 152.248C272.973 149.393 265.086 146.756 257.344 143.732C231.917 133.789 205.764 127.426 178.329 127.014C177.144 126.99 175.958 127.014 174.748 127.014C175.789 132.652 175.789 132.652 181.111 132.99C181.547 133.014 181.958 133.063 182.394 133.111C207.167 136.329 231.53 141.216 255.167 149.49C266.925 153.603 278.659 157.764 290.586 161.369C296.755 163.232 303.312 163.909 309.675 165.119ZM273.602 107.853C274.352 108.531 274.715 108.869 275.078 109.184C276.844 110.708 276.844 111.24 274.981 112.595C274.159 113.176 273.288 113.684 272.465 114.24C264.844 119.273 263.369 123.047 265.86 131.877C266.756 135.047 268.014 138.095 268.885 141.264C269.175 142.28 268.812 143.49 268.739 144.603C267.989 143.756 266.877 143.03 266.538 142.039C265.014 137.563 263.731 133.039 262.352 128.514C261.119 124.474 260.707 120.41 261.433 116.224C261.772 114.192 261.844 112.087 261.965 110.563C257.877 112.305 253.667 114.071 249.578 115.813C250.086 117.894 250.74 120.386 251.272 122.877C252.119 126.869 252.796 130.885 253.691 134.877C254.223 137.297 254.998 139.692 257.465 141.047C257.393 141.192 257.296 141.361 257.223 141.506C254.248 140.781 251.272 140.055 248.296 139.329C248.272 139.45 248.224 139.595 248.199 139.716C259.304 143.732 270.409 147.748 281.876 151.909C280.812 148.353 279.772 145.305 279.022 142.184C277.618 136.426 276.288 130.619 275.127 124.813C274.812 123.192 274.546 121.015 275.344 119.829C278.538 115.087 279.941 109.692 281.707 104.418C281.997 103.523 282.143 102.555 282.336 101.636C282.167 101.539 282.022 101.466 281.852 101.37C279.191 103.45 276.53 105.555 273.602 107.853ZM177.531 166.788C177.821 166.667 178.087 166.522 178.377 166.401C179.877 159.893 179.66 153.361 178.837 146.78C178.619 145.063 178.039 144.409 176.248 144.24C172.91 143.926 170.829 141.458 170.611 138.047C170.442 135.458 171.652 134.127 175.16 132.99C175.281 132.942 175.353 132.797 175.571 132.603C175.063 131.055 174.555 129.41 173.95 127.813C173.805 127.426 173.345 126.894 173.007 126.845C169.571 126.579 166.111 126.41 162.289 126.192C165.724 132.023 166.861 138.143 168.119 144.24C168.869 147.869 169.861 151.522 171.313 154.909C173.055 159.022 175.426 162.845 177.531 166.788ZM276.336 63.8699C275.175 62.4667 275.489 61.4264 276.336 60.2651C276.651 59.8054 276.675 59.128 276.82 58.5716C276.167 58.5232 275.417 58.2087 274.885 58.4264C271.957 59.6845 269.078 61.0635 266.006 62.4667C266.828 64.0876 267.627 65.6602 268.473 67.3054C270.336 66.507 271.885 65.757 273.481 65.1763C275.296 64.5231 276.094 65.2731 275.756 67.136C275.683 67.5231 275.61 67.9102 275.538 68.3215C276.626 68.3699 277.667 68.1763 278.441 68.5392C279.36 68.9747 280.57 69.8457 280.691 70.6682C280.788 71.3698 279.675 72.5795 278.804 73.015C277.57 73.644 276.046 73.7408 274.691 74.1521C273.82 74.4182 272.998 74.8295 271.715 75.3617C275.127 76.8133 278.659 73.9585 281.223 77.2246C286.11 74.8295 291.07 72.265 294.505 67.6925C293.32 66.0957 292.086 64.4505 290.828 62.7328C288.868 63.9909 286.715 64.7892 284.562 63.628C281.901 62.1764 283.667 59.7087 283.691 57.4345C281.901 58.1603 280.062 58.4748 278.828 59.5393C277.691 60.507 277.207 62.2731 276.336 63.8699ZM273.07 69.9424C271.691 69.6279 270.385 69.3134 269.054 69.0473C268.159 68.8779 267.143 68.4908 266.369 68.757C261.82 70.2811 257.272 70.5231 252.627 69.2408C249.07 68.2489 245.466 67.3537 241.474 66.2892C244.449 70.136 247.183 73.6924 249.893 77.2246C252.433 75.5553 256.594 74.9988 257.925 76.5714C260.151 79.2085 263.127 78.894 265.836 79.4262C266.707 74.9988 270.457 72.9666 273.07 69.9424ZM296.755 80.0069C296.562 79.8133 296.368 79.6198 296.175 79.4504C295.594 79.7165 294.941 80.273 294.433 80.1762C292.449 79.7165 291.263 81.0472 289.909 81.9665C286.062 84.5552 281.901 86.2729 277.231 85.8858C273.046 85.5229 268.909 84.652 264.723 84.0713C262.885 83.8294 261.022 83.8052 258.917 83.66C261.699 89.8052 265.715 93.6761 272.441 95.0309C269.465 92.9745 267.312 90.8213 265.909 87.2407C267.385 87.6278 268.352 87.7487 269.223 88.1116C274.377 90.2406 279.699 90.8697 285.215 90.0229C285.772 89.9503 286.473 89.9745 286.836 89.66C290.175 86.4665 293.441 83.2246 296.755 80.0069ZM285.409 54.7006C284.901 56.6361 284.368 58.5232 283.933 60.4587C283.667 61.6683 283.86 63.0231 285.288 63.1441C286.715 63.2651 288.191 62.878 289.594 62.4909C289.957 62.3941 290.417 61.4022 290.272 61.0151C289.062 57.7248 290.102 55.0393 292.11 52.4265C292.788 51.5555 293.151 50.4184 293.659 49.4265C293.513 49.3297 293.344 49.2571 293.199 49.1604C292.546 49.4991 291.917 49.862 290.973 50.37C290.731 49.1362 290.634 48.1684 290.344 47.2491C290.078 46.4749 289.763 45.5556 289.183 45.0717C287.925 44.0314 286.449 43.2814 285.094 42.362C283.812 41.4911 282.868 41.8056 282.457 43.2088C281.949 45.0475 281.417 46.9346 281.247 48.8217C280.885 53.2248 280.981 53.2248 285.118 54.4345C285.239 54.4829 285.336 54.6281 285.409 54.7006ZM239.078 62.2248C242.538 68.1279 260.78 70.9102 267.554 67.257C267.046 66.2408 266.417 65.2731 266.054 64.2086C265.546 62.757 264.796 62.5635 263.32 62.8296C260.32 63.386 257.248 63.7489 254.199 63.8941C250.207 64.0634 246.191 64.1118 242.345 62.5877C241.353 62.2006 240.167 62.3457 239.078 62.2248ZM334.352 196.207C337.182 196.522 339.989 196.933 342.819 197.175C351.021 197.853 359.198 198.482 367.4 199.014C368.658 199.111 369.94 198.724 371.222 198.554C371.198 198.24 371.198 197.925 371.174 197.611C359.174 193.328 346.908 192.554 334.352 196.207ZM255.917 79.523C257.006 82.1359 258.336 83.781 261.312 82.9826C262.28 82.7165 263.441 83.1036 264.481 83.273C267.723 83.8294 270.941 84.531 274.183 84.9907C280.885 85.9584 286.691 83.9504 291.868 79.4988C291.409 78.9907 290.997 78.6278 290.683 78.1682C290.32 77.6359 290.054 77.0553 289.884 76.7408C278.731 84.4342 267.53 83.5149 255.917 79.523ZM292.788 60.1441C291.094 62.6602 292.546 65.3699 296.828 67.8618C292.473 69.0957 291.191 72.6279 290.344 76.5472C290.949 77.273 291.723 78.1924 292.28 78.8456C294.699 78.2649 295.425 75.1682 298.134 76.3779C299.804 73.3537 299.876 70.4021 297.892 67.4989C296.223 65.1038 294.554 62.7086 292.788 60.1441ZM288.796 76.5956C288.022 74.2972 286.836 75.023 285.82 75.7004C278.296 80.6359 270.119 81.4101 261.53 79.523C260.465 79.2811 259.328 78.7972 258.53 78.0956C256.788 76.5956 253.861 75.9666 251.804 76.9101C250.836 77.3698 250.474 77.9746 251.175 78.9182C252.046 80.0552 252.772 81.3375 253.836 82.281C254.635 83.0068 255.844 83.273 256.861 83.7326C256.982 83.5149 257.102 83.2972 257.223 83.0794C256.667 82.2568 256.111 81.4585 255.554 80.6359C254.973 79.8133 254.369 78.9907 253.764 78.1682C265.836 82.6681 277.497 84.1681 288.796 76.5956ZM271.546 76.4988C271.11 74.6359 272.272 74.0311 273.554 73.6682C275.272 73.1601 277.038 72.8214 278.731 72.265C279.264 72.0956 279.844 71.5392 279.989 71.0311C280.11 70.6682 279.578 69.7005 279.312 69.6763C277.691 69.5795 275.61 69.0473 274.497 69.8215C272.199 71.4182 270.36 73.7408 268.425 75.8214C267.796 76.4988 267.36 77.3698 266.586 78.5069C271.377 78.8698 275.562 78.4827 279.53 76.4988C276.917 76.4988 274.304 76.4988 271.546 76.4988ZM285.022 90.918C278.877 91.8858 273.167 90.4826 267.457 88.4503C269.199 91.6922 271.401 94.4019 275.151 94.9341C279.07 95.4906 282.336 93.8696 285.022 90.918ZM178.353 143.539C177.531 140.151 176.732 136.934 175.958 133.764C172.45 134.321 171.144 135.676 171.361 138.143C171.724 141.918 173.805 143.659 178.353 143.539ZM293.223 52.62C293.272 52.6926 293.344 52.7894 293.392 52.8619C293.901 52.499 294.433 52.1361 294.941 51.7732C296.828 50.4426 297.989 48.6281 297.651 46.3056C297.312 43.9346 296.102 41.8782 293.755 41.0314C290.755 39.9427 287.634 39.1685 284.538 38.2492C284.126 39.4346 284.441 40.0637 285.723 40.3782C287.32 40.7653 288.893 41.2733 290.393 41.9024C295.715 44.1765 296.465 46.2814 293.876 51.5313C293.683 51.8942 293.441 52.2571 293.223 52.62ZM284.223 98.7325C288.046 95.9987 288.772 94.0148 286.522 91.039C283.57 93.9422 280.11 95.8051 275.949 96.1438C278.538 96.9422 281.151 97.7648 284.223 98.7325ZM132.846 205.643C128.757 204.336 124.668 203.103 120.338 204.554C124.33 207.167 128.588 206.49 132.846 205.643ZM281.901 57.2167C279.917 56.878 278.368 56.7329 276.868 56.3458C274.739 55.8135 273.046 56.3458 271.28 57.6038C269.683 58.7409 267.772 59.4183 266.03 60.3377C265.764 60.4828 265.57 60.7006 265.328 60.8941C265.401 61.0635 265.449 61.2328 265.522 61.4022C266.151 61.257 266.804 61.2086 267.36 60.9667C269.514 60.0232 271.643 59.0071 273.796 58.0393C275.441 57.2893 277.062 56.7813 278.03 58.9587C279.264 58.4022 280.352 57.8942 281.901 57.2167ZM261.167 108.749C262.933 105.894 261.723 100.886 258.965 99.2889C259.086 102.603 259.159 105.821 261.167 108.749ZM238.691 63.6764C237.99 63.1441 237.24 62.6602 236.562 62.0796C236.006 61.5957 235.449 61.0635 235.087 60.4345C234.627 59.5877 234.361 58.6442 233.853 57.3135C231.724 61.5232 232.909 62.9989 238.691 63.6764ZM275.199 65.3457C272.901 66.2892 271.038 67.0634 268.933 67.9344C272.32 69.8699 274.618 69.0231 275.199 65.3457ZM239.49 60.7248C238.691 57.5071 236.587 56.3216 233.853 57.5796C236.006 58.7651 237.748 59.7328 239.49 60.7248ZM265.183 96.289C265.352 96.168 265.522 96.047 265.667 95.9019C263.998 93.5309 262.304 91.1358 260.635 88.7648C259.909 90.3858 262.183 93.6277 265.183 96.289ZM255.506 84.5068C256.764 86.1036 257.852 87.531 258.965 88.9584C259.256 88.8616 259.522 88.7648 259.812 88.6681C259.57 87.7245 259.449 86.7326 259.086 85.8133C258.506 84.3375 257.344 83.8778 255.506 84.5068Z" fill="#9DC29D"/>
<path d="M132.846 205.642C128.563 206.465 124.305 207.166 120.338 204.554C124.668 203.102 128.757 204.336 132.846 205.642Z" fill="white"/>
</svg>
