<svg width="1432" height="218" viewBox="0 0 1432 218" fill="none" xmlns="http://www.w3.org/2000/svg">
<path d="M725.485 210.533C725.485 210.533 716.694 208.859 706.936 210.105C697.207 211.351 714.174 210.923 719.508 210.105C724.841 209.287 720.123 192.15 720.123 192.15C720.123 192.15 716.987 191.722 713.852 190.475C710.716 189.229 709.456 182.53 710.394 178.363C711.332 174.196 711.009 185.88 709.456 190.475C707.874 195.071 700.343 192.15 697.53 191.722C694.716 191.293 695.654 170.418 695.332 165.432C695.009 160.408 692.812 203.834 692.812 211.351C692.812 218.868 695.947 210.923 698.145 207.573C700.343 204.224 653.222 208.82 642.526 210.066C631.859 211.312 647.859 210.494 650.995 210.494C654.13 210.494 648.797 167.497 656.651 161.226C664.504 154.956 669.544 182.53 669.837 185.023C670.16 187.515 669.837 110.283 669.515 103.195C669.193 96.1064 652.548 99.0274 650.673 95.678C648.797 92.3285 652.255 64.7928 654.746 54.355C657.266 43.9171 653.486 38.5035 654.13 34.7256C654.746 30.9867 656.651 27.6372 658.848 19.2636C661.046 10.9289 659.171 -1.61215 658.848 2.98362C658.526 7.5794 661.984 18.8351 664.826 25.1056C667.639 31.3761 668.607 38.4645 667.962 40.9572C667.346 43.4498 651.317 42.2035 650.379 45.9813C649.442 49.7592 667.346 48.9024 670.482 45.9813C673.617 43.0603 667.962 43.8782 667.024 45.9813C666.086 48.0845 668.607 70.6349 670.482 82.7086C672.357 94.8211 671.742 100.663 675.522 99.4169C679.302 98.1706 650.702 99.8453 645.046 99.8453C639.39 99.8453 645.984 96.4959 647.244 96.4959C648.504 96.4959 647.244 112.776 643.786 116.943C640.328 121.11 640.651 112.347 640.651 112.347C640.651 112.347 676.46 112.776 676.46 109.855C676.46 106.934 678.335 124.888 681.5 132.834C684.636 140.779 684.636 132.405 683.376 127.809C682.116 123.214 645.691 123.214 642.233 124.888C638.775 126.563 634.702 133.223 633.764 139.065C632.826 144.907 683.083 148.257 689.998 144.907C696.914 141.558 633.764 142.804 629.691 147.828C625.618 152.852 687.508 159.084 695.361 157.02C703.215 154.917 629.691 151.606 626.878 154.099C624.035 156.591 622.16 186.659 626.878 200.018C631.596 213.376 630.013 188.333 630.013 188.333C630.013 188.333 616.826 187.905 610.233 187.905C603.64 187.905 607.713 182.881 606.16 179.142C604.577 175.364 605.837 194.175 604.284 198.771C602.702 203.367 599.889 201.264 597.691 202.121C595.493 202.939 610.585 209.638 625.032 208.781C639.478 207.963 596.783 208.352 596.783 208.352C596.783 208.352 580.607 208.352 575.83 209.365C571.083 210.378 577.178 210.884 579.259 209.365C581.339 207.846 580.021 190.631 579.054 187.36C578.116 184.049 567.244 185.334 562.673 186.347C558.101 187.36 561.354 199.511 560.006 203.795C558.658 208.08 557.339 162.278 560.006 160.525C562.673 158.733 593.12 163.797 590.482 163.797C587.815 163.797 575.449 145.569 572.021 137.235C568.592 128.9 565.75 110.673 566.306 101.793C566.863 92.9517 567.83 106.856 567.625 118.501C567.449 130.146 556.958 154.956 549.164 162.511C541.369 170.106 535.654 171.352 535.83 167.575C536.035 163.797 591.625 170.846 595.054 169.366C598.482 167.847 588.783 169.639 588.021 170.379C587.259 171.158 585.94 202.276 588.226 206.833C590.511 211.39 589.369 180.778 589.369 180.778C589.369 180.778 545.002 180.778 542.541 179.025C540.079 177.233 543.508 177 545.208 177C546.907 177 545.002 200.524 545.208 206.093C545.383 211.663 559.479 211.39 566.16 209.131C572.812 206.872 552.651 209.131 551.684 209.131C550.746 209.131 527.567 209.092 527.567 209.092C523.376 206.6 520.446 189.346 524.636 179.298C528.827 169.288 525.252 208.508 524.841 210.183C524.431 211.858 410.907 211.585 387.875 209.91C364.842 208.235 387.259 211.312 388.724 210.183C390.19 209.053 385.589 179.298 387.054 174.546C388.519 169.833 417.208 174.273 420.988 175.091C424.768 175.909 422.248 209.053 423.303 207.924C424.358 206.794 424.563 183.699 425.384 176.182C426.233 168.665 432.915 190.67 434.175 197.603C435.435 204.574 437.105 187.866 440.446 182.569C443.787 177.272 452.373 197.058 454.072 200.952C455.743 204.847 458.058 185.646 463.069 178.947C468.109 172.248 472.915 200.952 476.46 205.392C480.006 209.832 477.31 177.545 477.31 174.78C477.31 172.014 520.446 174.234 528.416 173.962C536.387 173.689 533.662 176.182 528.211 175.637C522.761 175.091 509.984 163.68 509.984 158.656C509.984 153.631 512.065 163.68 510.394 166.445C508.724 169.21 418.878 166.99 417.823 161.148C416.768 155.306 505.354 163.368 505.354 163.368C505.354 163.368 505.354 121.889 505.764 114.918C506.175 107.946 508.285 113.243 507.845 116.865C507.435 120.487 497.178 122.435 496.534 123.564C495.918 124.694 496.534 147.789 495.068 154.449C493.603 161.109 493.808 109.621 496.329 107.674C498.849 105.726 496.944 111.568 492.548 116.593C488.153 121.617 479.567 117.722 475.581 119.358C471.596 121.033 475.786 154.449 474.321 159.435C472.856 164.459 472.241 114.918 472.651 108.219C473.061 101.52 475.171 112.114 472.446 116.008C469.721 119.903 438.102 112.659 435.171 114.879C432.241 117.099 433.911 151.061 432.036 158.305C430.16 165.549 428.461 108.764 430.16 105.96C431.831 103.195 431.42 112.659 430.16 116.242C428.9 119.864 407.332 116.242 405.252 110.945C403.171 105.648 406.307 108.18 409.032 112.62C411.757 117.06 407.772 158.266 410.497 162.433C413.222 166.601 411.757 125.122 411.142 124.032C410.497 122.902 397.75 123.214 394.585 120.137C391.45 117.06 394.995 115.697 398.131 120.409C401.266 125.122 397.281 158.811 397.281 165.238C397.281 171.625 398.131 158.266 397.281 158.85C396.431 159.396 378.234 173.884 374.864 173.611C371.523 173.339 376.329 171.391 378.644 171.391C380.959 171.391 377.794 204.496 380.724 208.391C383.655 212.286 380.607 203.25 380.607 203.25C380.607 203.25 304.651 201.03 304.651 196.59C304.651 192.15 310.014 199.706 313.355 198.81C316.695 197.914 317.369 193.046 323.728 187.71C330.087 182.374 338.439 196.59 342.453 198.382C346.468 200.173 346.146 196.59 351.157 191.254C356.168 185.919 367.538 200.602 367.538 200.602C367.538 200.602 367.86 169.483 368.212 165.471C368.534 161.46 370.878 166.367 370.556 168.159C370.234 169.95 359.508 161.927 358.834 159.707C358.16 157.487 358.834 141.908 358.512 136.573C358.19 131.237 352.153 122.357 347.816 122.357C343.479 122.357 348.138 124.577 350.834 123.681C353.501 122.785 353.179 100.118 350.16 92.0948C347.142 84.1107 331.083 90.3033 327.743 93.8864C324.402 97.4306 341.457 96.1064 346.468 89.8748C351.479 83.6433 342.776 71.6475 342.776 71.6475C342.776 71.6475 344.446 65.8834 344.124 62.7676C343.801 59.6518 341.105 49.8761 341.105 49.8761C341.105 49.8761 341.105 39.6329 336.417 28.533C331.728 17.433 331.728 9.83833 333.75 4.96993C335.772 0.0625841 333.076 17.8615 327.743 27.2088C322.38 36.5561 322.732 41.8919 322.732 48.5519C322.732 55.2118 332.754 58.3276 339.464 55.2118C346.146 52.0961 325.75 51.6676 322.058 59.2234C318.366 66.7792 332.754 73.9065 341.457 69.4665C350.16 65.0265 321.062 70.7907 321.062 79.7096C321.062 88.5896 336.446 89.057 344.153 87.2654C346.087 86.837 346.878 86.3696 346.878 85.9412C346.79 84.6949 339.142 83.6822 331.113 83.6822C320.417 83.6822 316.402 89.4464 314.058 94.7822C311.714 100.118 312.388 104.558 313.736 111.685C315.084 118.813 344.505 121.928 349.867 117.917C355.23 113.905 318.424 114.801 313.062 118.345C307.699 121.889 303.684 132.133 304.036 133.457C304.358 134.781 304.036 146.777 304.358 152.58C304.681 158.344 343.831 161.031 353.882 159.24C363.904 157.448 311.391 159.24 307.728 159.24C304.036 159.24 294.336 164.147 289.003 166.367C283.64 168.587 288.007 165.939 292.344 163.251C296.681 160.564 291.347 175.714 291.347 177.467C291.347 179.259 354.908 183.231 365.604 180.583C376.3 177.934 300.373 179.259 298.703 180.154C297.032 181.05 298.703 192.15 299.025 201.926C299.347 211.702 355.23 212.169 371.611 208.158C387.992 204.146 296.622 206.444 296.622 206.444C296.622 206.444 206.805 202.276 190.6 207.184C174.395 212.091 290.38 210.572 290.38 208.703C290.38 206.833 290.38 189.073 289.53 187.165C288.681 185.257 228.695 181.868 217.326 184.517C205.956 187.165 277.868 182.647 277.868 181.479C277.868 180.349 277.868 167.886 277.868 164.848C277.868 161.81 198.571 166.718 189.194 160.681C179.816 154.644 248.329 161.81 252.021 162.2C255.714 162.589 254.014 173.533 255.157 174.663C256.3 175.792 256.857 151.606 256.857 145.569C256.857 139.533 258.263 145.569 257.999 147.088C257.706 148.607 234.703 143.31 225.882 144.05C217.062 144.79 233.267 147.088 236.695 145.92C240.095 144.79 234.996 121.344 234.146 115.697C233.296 110.049 229.018 104.753 221.926 99.4559C214.805 94.159 210.556 95.678 211.406 96.0674C212.256 96.4569 211.406 102.104 210.556 107.012C209.706 111.919 205.428 111.179 202.879 114.178C200.329 117.216 197.75 125.512 188.373 130.029C178.996 134.547 184.974 128.121 184.974 128.121C184.974 128.121 184.681 135.287 184.974 141.714C185.267 148.14 204.578 147.75 210.849 145.881C217.091 144.011 167.655 145.141 165.077 147.4C162.527 149.659 164.784 157.215 166.483 171.197C168.183 185.179 167.89 160.252 167.89 160.252C167.89 160.252 148.842 160.252 147.436 160.642C146 161.031 146.586 167.458 147.143 175.013C147.699 182.569 187.494 184.439 200.857 181.44C214.219 178.402 137.179 181.829 137.179 181.829C137.179 181.829 137.179 198.849 137.179 203.756C137.179 208.664 165.604 212.052 176.974 210.572C188.344 209.053 130.351 210.183 130.351 210.183C130.351 210.183 127.157 174.819 124.637 179.843C122.117 184.867 121.179 205.314 122.762 202.822C124.344 200.329 83.4943 203.25 82.8789 201.575C82.2636 199.901 76.9009 183.621 73.7654 189.463C70.6299 195.305 73.7654 203.25 69.9852 203.679C66.205 204.107 32.3003 203.679 32.3003 203.679C32.3003 203.679 41.7362 182.803 41.4138 181.557C41.0915 180.31 31.978 177.389 37.6336 181.557C43.2893 185.724 115.553 181.985 115.553 179.453C115.553 176.961 113.033 164.848 111.773 166.095C110.513 167.341 111.773 177.779 109.897 173.183C108.022 168.587 103.304 156.903 104.564 155.228C105.824 153.554 109.897 150.204 107.084 153.982C104.271 157.721 47.7142 160.252 47.3918 157.721C47.0695 155.228 48.9743 140.584 48.9743 142.259C48.9743 143.934 51.4944 155.618 52.7545 152.697C54.0145 149.776 51.4944 138.091 54.3369 137.235C57.1501 136.417 100.842 141.402 101.458 136.417C102.073 131.393 101.135 119.708 100.52 121.383C99.9045 123.058 114.029 126.407 97.9998 127.225C81.9705 128.043 58.7325 132.249 57.7947 128.043C56.857 123.876 54.3369 114.684 53.7215 118.034C53.1061 121.383 56.857 130.146 58.4394 124.304C60.0218 118.462 59.0548 111.763 60.6372 110.945C62.2196 110.127 97.3844 112.192 97.3844 112.192C97.3844 112.192 97.9998 127.225 97.0621 120.526C96.1243 113.827 96.1243 96.7296 95.1866 97.158C94.2489 97.5864 92.9888 100.507 92.9888 100.507C92.9888 100.507 54.0438 100.507 55.5969 103C57.1794 105.493 58.4101 110.088 59.0548 104.675C59.6702 99.2611 60.3149 90.8875 60.3149 90.8875C60.3149 90.8875 60.3149 94.2369 62.5127 94.2369C64.7105 94.2369 92.6665 95.9117 92.6665 91.3159C92.6665 86.7201 92.3441 75.036 91.4064 77.1391C90.4687 79.2423 89.824 82.5528 88.8862 82.9812C87.9485 83.4096 62.1903 87.1485 61.868 83.7991C61.5457 80.4496 62.1903 71.2581 62.8057 72.9328C63.4211 74.6075 63.7434 80.878 65.6189 77.957C67.4944 75.036 64.0365 62.9234 68.139 62.1055C72.2123 61.2876 86.0438 59.1844 86.9815 61.6771C87.9192 64.1697 89.1793 79.2033 87.5969 75.8538C86.0145 72.5044 86.0145 57.8992 85.3991 56.2245C84.7837 54.5497 81.6189 39.5161 80.0658 35.3488C78.4833 31.1814 76.9302 -0.560571 76.9302 3.21731C76.9302 6.99519 76.3148 28.2604 75.0548 34.1024C73.7947 39.9445 71.2746 62.495 70.6592 65.416C70.0438 68.337 68.4614 82.9422 71.9193 79.2033C75.3771 75.4254 79.4504 70.0118 79.7727 73.3612C80.0951 76.7107 81.6482 80.4496 82.5859 77.5286C83.5236 74.6075 82.2636 71.6865 83.5236 74.6075C84.7837 77.5286 91.3771 123.058 89.7947 121.383C88.2123 119.708 85.3991 110.517 83.8167 115.113C82.2343 119.708 82.2343 124.733 79.4211 123.058C76.6079 121.383 74.3808 115.113 72.5053 117.644C70.6299 120.137 67.7874 124.733 67.465 122.668C67.1427 120.565 66.5273 116.398 65.2673 119.319C64.0072 122.24 55.216 160.642 57.0914 157.331C58.9669 153.982 62.1317 143.973 64.3295 148.568C66.5273 153.164 65.5896 157.76 69.0475 153.164C72.5053 148.568 73.1207 143.155 78.161 147.322C83.2013 151.489 79.7434 153.592 84.432 150.243C89.15 146.894 94.8057 137.313 97.0034 144.829C99.2012 152.346 109.253 185.763 105.795 179.064C102.337 172.365 99.5236 161.927 97.6188 167.808C95.7434 173.65 96.6811 179.492 93.5456 176.143C90.4101 172.793 84.432 162.356 82.5566 167.38C80.6811 172.404 79.0987 179.064 77.5163 175.325C75.9339 171.586 74.0584 163.641 70.2782 167.38C66.498 171.158 64.0072 177 62.7471 174.897C61.487 172.793 57.7068 164.887 55.216 168.626C52.6959 172.365 50.8204 178.636 50.8204 174.897C50.8204 171.119 50.205 162.356 48.6226 164.887C47.0402 167.38 41.3845 194.954 42.6446 195.772C43.9047 196.59 31.0109 198.265 31.0109 195.772C31.0109 193.28 29.4285 178.636 26.9377 183.66C24.4175 188.684 21.6043 211.624 27.26 214.155C32.9157 216.648 127.773 217.505 121.824 214.584C115.729 211.78 2 212.208 2 212.208" stroke="#009340" stroke-width="3" stroke-miterlimit="10" stroke-linecap="round" stroke-linejoin="round"/>
<path d="M1430 210.533C1430 210.533 1421.21 208.859 1411.45 210.105C1401.72 211.351 1418.69 210.923 1424.02 210.105C1429.36 209.287 1424.64 192.15 1424.64 192.15C1424.64 192.15 1421.5 191.722 1418.37 190.475C1415.23 189.229 1413.97 182.53 1414.91 178.363C1415.85 174.196 1415.52 185.88 1413.97 190.475C1412.39 195.071 1404.86 192.15 1402.04 191.722C1399.23 191.293 1400.17 170.418 1399.85 165.432C1399.52 160.408 1397.33 203.834 1397.33 211.351C1397.33 218.868 1400.46 210.923 1402.66 207.573C1404.86 204.224 1357.74 208.82 1347.04 210.066C1336.37 211.312 1352.37 210.494 1355.51 210.494C1358.64 210.494 1353.31 167.497 1361.16 161.226C1369.02 154.956 1374.06 182.53 1374.35 185.023C1374.67 187.515 1374.35 110.283 1374.03 103.195C1373.71 96.1064 1357.06 99.0274 1355.19 95.678C1353.31 92.3285 1356.77 64.7928 1359.26 54.355C1361.78 43.9171 1358 38.5035 1358.64 34.7256C1359.26 30.9867 1361.16 27.6372 1363.36 19.2636C1365.56 10.9289 1363.69 -1.61215 1363.36 2.98362C1363.04 7.5794 1366.5 18.8351 1369.34 25.1056C1372.15 31.3761 1373.12 38.4645 1372.48 40.9572C1371.86 43.4498 1355.83 42.2035 1354.89 45.9813C1353.96 49.7592 1371.86 48.9024 1375 45.9813C1378.13 43.0603 1372.48 43.8782 1371.54 45.9813C1370.6 48.0845 1373.12 70.6349 1375 82.7086C1376.87 94.8211 1376.26 100.663 1380.04 99.4169C1383.82 98.1706 1355.22 99.8453 1349.56 99.8453C1343.9 99.8453 1350.5 96.4959 1351.76 96.4959C1353.02 96.4959 1351.76 112.776 1348.3 116.943C1344.84 121.11 1345.16 112.347 1345.16 112.347C1345.16 112.347 1380.97 112.776 1380.97 109.855C1380.97 106.934 1382.85 124.888 1386.01 132.834C1389.15 140.779 1389.15 132.405 1387.89 127.809C1386.63 123.214 1350.21 123.214 1346.75 124.888C1343.29 126.563 1339.22 133.223 1338.28 139.065C1337.34 144.907 1387.6 148.257 1394.51 144.907C1401.43 141.558 1338.28 142.804 1334.21 147.828C1330.13 152.852 1392.02 159.084 1399.88 157.02C1407.73 154.917 1334.21 151.606 1331.39 154.099C1328.55 156.591 1326.67 186.659 1331.39 200.018C1336.11 213.376 1334.53 188.333 1334.53 188.333C1334.53 188.333 1321.34 187.905 1314.75 187.905C1308.15 187.905 1312.23 182.881 1310.67 179.142C1309.09 175.364 1310.35 194.175 1308.8 198.771C1307.22 203.367 1304.4 201.264 1302.21 202.121C1300.01 202.939 1315.1 209.638 1329.55 208.781C1343.99 207.963 1301.3 208.352 1301.3 208.352C1301.3 208.352 1285.12 208.352 1280.34 209.365C1275.6 210.378 1281.69 210.884 1283.77 209.365C1285.85 207.846 1284.54 190.631 1283.57 187.36C1282.63 184.049 1271.76 185.334 1267.19 186.347C1262.62 187.36 1265.87 199.511 1264.52 203.795C1263.17 208.08 1261.85 162.278 1264.52 160.525C1267.19 158.733 1297.63 163.797 1295 163.797C1292.33 163.797 1279.96 145.569 1276.54 137.235C1273.11 128.9 1270.26 110.673 1270.82 101.793C1271.38 92.9517 1272.34 106.856 1272.14 118.501C1271.96 130.146 1261.47 154.956 1253.68 162.511C1245.88 170.106 1240.17 171.352 1240.34 167.575C1240.55 163.797 1296.14 170.846 1299.57 169.366C1303 167.847 1293.3 169.639 1292.54 170.379C1291.77 171.158 1290.45 202.276 1292.74 206.833C1295.03 211.39 1293.88 180.778 1293.88 180.778C1293.88 180.778 1249.52 180.778 1247.06 179.025C1244.59 177.233 1248.02 177 1249.72 177C1251.42 177 1249.52 200.524 1249.72 206.093C1249.9 211.663 1263.99 211.39 1270.67 209.131C1277.33 206.872 1257.17 209.131 1256.2 209.131C1255.26 209.131 1232.08 209.092 1232.08 209.092C1227.89 206.6 1224.96 189.346 1229.15 179.298C1233.34 169.288 1229.77 208.508 1229.36 210.183C1228.95 211.858 1115.42 211.585 1092.39 209.91C1069.36 208.235 1091.77 211.312 1093.24 210.183C1094.7 209.053 1090.1 179.298 1091.57 174.546C1093.03 169.833 1121.72 174.273 1125.5 175.091C1129.28 175.909 1126.76 209.053 1127.82 207.924C1128.87 206.794 1129.08 183.699 1129.9 176.182C1130.75 168.665 1137.43 190.67 1138.69 197.603C1139.95 204.574 1141.62 187.866 1144.96 182.569C1148.3 177.272 1156.89 197.058 1158.59 200.952C1160.26 204.847 1162.57 185.646 1167.58 178.947C1172.62 172.248 1177.43 200.952 1180.97 205.392C1184.52 209.832 1181.82 177.545 1181.82 174.78C1181.82 172.014 1224.96 174.234 1232.93 173.962C1240.9 173.689 1238.18 176.182 1232.73 175.637C1227.28 175.091 1214.5 163.68 1214.5 158.656C1214.5 153.631 1216.58 163.68 1214.91 166.445C1213.24 169.21 1123.39 166.99 1122.34 161.148C1121.28 155.306 1209.87 163.368 1209.87 163.368C1209.87 163.368 1209.87 121.889 1210.28 114.918C1210.69 107.946 1212.8 113.243 1212.36 116.865C1211.95 120.487 1201.69 122.435 1201.05 123.564C1200.43 124.694 1201.05 147.789 1199.58 154.449C1198.12 161.109 1198.32 109.621 1200.84 107.674C1203.36 105.726 1201.46 111.568 1197.06 116.593C1192.67 121.617 1184.08 117.722 1180.1 119.358C1176.11 121.033 1180.3 154.449 1178.84 159.435C1177.37 164.459 1176.76 114.918 1177.17 108.219C1177.58 101.52 1179.69 112.114 1176.96 116.008C1174.23 119.903 1142.62 112.659 1139.69 114.879C1136.76 117.099 1138.43 151.061 1136.55 158.305C1134.67 165.549 1132.97 108.764 1134.67 105.96C1136.34 103.195 1135.93 112.659 1134.67 116.242C1133.41 119.864 1111.85 116.242 1109.77 110.945C1107.69 105.648 1110.82 108.18 1113.55 112.62C1116.27 117.06 1112.29 158.266 1115.01 162.433C1117.74 166.601 1116.27 125.122 1115.66 124.032C1115.01 122.902 1102.26 123.214 1099.1 120.137C1095.96 117.06 1099.51 115.697 1102.65 120.409C1105.78 125.122 1101.8 158.811 1101.8 165.238C1101.8 171.625 1102.65 158.266 1101.8 158.85C1100.95 159.396 1082.75 173.884 1079.38 173.611C1076.04 173.339 1080.84 171.391 1083.16 171.391C1085.47 171.391 1082.31 204.496 1085.24 208.391C1088.17 212.286 1085.12 203.25 1085.12 203.25C1085.12 203.25 1009.17 201.03 1009.17 196.59C1009.17 192.15 1014.53 199.706 1017.87 198.81C1021.21 197.914 1021.88 193.046 1028.24 187.71C1034.6 182.374 1042.95 196.59 1046.97 198.382C1050.98 200.173 1050.66 196.59 1055.67 191.254C1060.68 185.919 1072.05 200.602 1072.05 200.602C1072.05 200.602 1072.37 169.483 1072.73 165.471C1073.05 161.46 1075.39 166.367 1075.07 168.159C1074.75 169.95 1064.02 161.927 1063.35 159.707C1062.67 157.487 1063.35 141.908 1063.03 136.573C1062.7 131.237 1056.67 122.357 1052.33 122.357C1047.99 122.357 1052.65 124.577 1055.35 123.681C1058.02 122.785 1057.69 100.118 1054.67 92.0948C1051.66 84.1107 1035.6 90.3033 1032.26 93.8864C1028.92 97.4306 1045.97 96.1064 1050.98 89.8748C1055.99 83.6433 1047.29 71.6475 1047.29 71.6475C1047.29 71.6475 1048.96 65.8834 1048.64 62.7676C1048.32 59.6518 1045.62 49.8761 1045.62 49.8761C1045.62 49.8761 1045.62 39.6329 1040.93 28.533C1036.24 17.433 1036.24 9.83833 1038.26 4.96993C1040.29 0.0625841 1037.59 17.8615 1032.26 27.2088C1026.89 36.5561 1027.25 41.8919 1027.25 48.5519C1027.25 55.2118 1037.27 58.3276 1043.98 55.2118C1050.66 52.0961 1030.26 51.6676 1026.57 59.2234C1022.88 66.7792 1037.27 73.9065 1045.97 69.4665C1054.67 65.0265 1025.58 70.7907 1025.58 79.7096C1025.58 88.5896 1040.96 89.057 1048.67 87.2654C1050.6 86.837 1051.39 86.3696 1051.39 85.9412C1051.3 84.6949 1043.66 83.6822 1035.63 83.6822C1024.93 83.6822 1020.92 89.4464 1018.57 94.7822C1016.23 100.118 1016.9 104.558 1018.25 111.685C1019.6 118.813 1049.02 121.928 1054.38 117.917C1059.74 113.905 1022.94 114.801 1017.58 118.345C1012.21 121.889 1008.2 132.133 1008.55 133.457C1008.87 134.781 1008.55 146.777 1008.87 152.58C1009.2 158.344 1048.35 161.031 1058.4 159.24C1068.42 157.448 1015.91 159.24 1012.24 159.24C1008.55 159.24 998.851 164.147 993.517 166.367C988.155 168.587 992.521 165.939 996.858 163.251C1001.2 160.564 995.862 175.714 995.862 177.467C995.862 179.259 1059.42 183.231 1070.12 180.583C1080.81 177.934 1004.89 179.259 1003.22 180.154C1001.55 181.05 1003.22 192.15 1003.54 201.926C1003.86 211.702 1059.74 212.169 1076.13 208.158C1092.51 204.146 1001.14 206.444 1001.14 206.444C1001.14 206.444 911.32 202.276 895.115 207.184C878.91 212.091 994.895 210.572 994.895 208.703C994.895 206.833 994.895 189.073 994.045 187.165C993.195 185.257 933.21 181.868 921.84 184.517C910.47 187.165 982.382 182.647 982.382 181.479C982.382 180.349 982.382 167.886 982.382 164.848C982.382 161.81 903.085 166.718 893.708 160.681C884.331 154.644 952.844 161.81 956.536 162.2C960.228 162.589 958.528 173.533 959.671 174.663C960.814 175.792 961.371 151.606 961.371 145.569C961.371 139.533 962.778 145.569 962.514 147.088C962.221 148.607 939.217 143.31 930.397 144.05C921.576 144.79 937.781 147.088 941.21 145.92C944.609 144.79 939.51 121.344 938.66 115.697C937.811 110.049 933.532 104.753 926.441 99.4559C919.32 94.159 915.071 95.678 915.921 96.0674C916.77 96.4569 915.921 102.104 915.071 107.012C914.221 111.919 909.943 111.179 907.393 114.178C904.844 117.216 902.265 125.512 892.888 130.029C883.51 134.547 889.488 128.121 889.488 128.121C889.488 128.121 889.195 135.287 889.488 141.714C889.781 148.14 909.093 147.75 915.364 145.881C921.605 144.011 872.17 145.141 869.591 147.4C867.042 149.659 869.298 157.215 870.998 171.197C872.697 185.179 872.404 160.252 872.404 160.252C872.404 160.252 853.357 160.252 851.95 160.642C850.514 161.031 851.1 167.458 851.657 175.013C852.214 182.569 892.008 184.439 905.371 181.44C918.734 178.402 841.694 181.829 841.694 181.829C841.694 181.829 841.694 198.849 841.694 203.756C841.694 208.664 870.118 212.052 881.488 210.572C892.858 209.053 834.866 210.183 834.866 210.183C834.866 210.183 831.672 174.819 829.151 179.843C826.631 184.867 825.694 205.314 827.276 202.822C828.858 200.329 788.009 203.25 787.393 201.575C786.778 199.901 781.415 183.621 778.28 189.463C775.144 195.305 778.28 203.25 774.5 203.679C770.719 204.107 736.815 203.679 736.815 203.679C736.815 203.679 746.251 182.803 745.928 181.557C745.606 180.31 736.492 177.389 742.148 181.557C747.804 185.724 820.067 181.985 820.067 179.453C820.067 176.961 817.547 164.848 816.287 166.095C815.027 167.341 816.287 177.779 814.412 173.183C812.536 168.587 807.818 156.903 809.078 155.228C810.338 153.554 814.412 150.204 811.598 153.982C808.785 157.721 752.229 160.252 751.906 157.721C751.584 155.228 753.489 140.584 753.489 142.259C753.489 143.934 756.009 155.618 757.269 152.697C758.529 149.776 756.009 138.091 758.851 137.235C761.664 136.417 805.357 141.402 805.972 136.417C806.587 131.393 805.65 119.708 805.034 121.383C804.419 123.058 818.543 126.407 802.514 127.225C786.485 128.043 763.247 132.249 762.309 128.043C761.371 123.876 758.851 114.684 758.236 118.034C757.621 121.383 761.371 130.146 762.954 124.304C764.536 118.462 763.569 111.763 765.152 110.945C766.734 110.127 801.899 112.192 801.899 112.192C801.899 112.192 802.514 127.225 801.576 120.526C800.639 113.827 800.639 96.7296 799.701 97.158C798.763 97.5864 797.503 100.507 797.503 100.507C797.503 100.507 758.558 100.507 760.111 103C761.694 105.493 762.925 110.088 763.569 104.675C764.185 99.2611 764.829 90.8875 764.829 90.8875C764.829 90.8875 764.829 94.2369 767.027 94.2369C769.225 94.2369 797.181 95.9117 797.181 91.3159C797.181 86.7201 796.859 75.036 795.921 77.1391C794.983 79.2423 794.338 82.5528 793.401 82.9812C792.463 83.4096 766.705 87.1485 766.382 83.7991C766.06 80.4496 766.705 71.2581 767.32 72.9328C767.936 74.6075 768.258 80.878 770.133 77.957C772.009 75.036 768.551 62.9234 772.653 62.1055C776.727 61.2876 790.558 59.1844 791.496 61.6771C792.434 64.1697 793.694 79.2033 792.111 75.8538C790.529 72.5044 790.529 57.8992 789.913 56.2245C789.298 54.5497 786.133 39.5161 784.58 35.3488C782.998 31.1814 781.445 -0.560571 781.445 3.21731C781.445 6.99519 780.829 28.2604 779.569 34.1024C778.309 39.9445 775.789 62.495 775.174 65.416C774.558 68.337 772.976 82.9422 776.434 79.2033C779.892 75.4254 783.965 70.0118 784.287 73.3612C784.609 76.7107 786.163 80.4496 787.1 77.5286C788.038 74.6075 786.778 71.6865 788.038 74.6075C789.298 77.5286 795.891 123.058 794.309 121.383C792.727 119.708 789.913 110.517 788.331 115.113C786.749 119.708 786.749 124.733 783.935 123.058C781.122 121.383 778.895 115.113 777.02 117.644C775.144 120.137 772.302 124.733 771.979 122.668C771.657 120.565 771.042 116.398 769.782 119.319C768.522 122.24 759.73 160.642 761.606 157.331C763.481 153.982 766.646 143.973 768.844 148.568C771.042 153.164 770.104 157.76 773.562 153.164C777.02 148.568 777.635 143.155 782.675 147.322C787.716 151.489 784.258 153.592 788.946 150.243C793.664 146.894 799.32 137.313 801.518 144.829C803.716 152.346 813.767 185.763 810.309 179.064C806.851 172.365 804.038 161.927 802.133 167.808C800.258 173.65 801.196 179.492 798.06 176.143C794.924 172.793 788.946 162.356 787.071 167.38C785.196 172.404 783.613 179.064 782.031 175.325C780.448 171.586 778.573 163.641 774.793 167.38C771.012 171.158 768.522 177 767.262 174.897C766.001 172.793 762.221 164.887 759.73 168.626C757.21 172.365 755.335 178.636 755.335 174.897C755.335 171.119 754.719 162.356 753.137 164.887C751.555 167.38 745.899 194.954 747.159 195.772C748.419 196.59 735.525 198.265 735.525 195.772C735.525 193.28 733.943 178.636 731.452 183.66C728.932 188.684 726.119 211.624 731.774 214.155C737.43 216.648 832.287 217.505 826.338 214.584C820.243 211.78 706.514 212.208 706.514 212.208" stroke="#009340" stroke-width="3" stroke-miterlimit="10" stroke-linecap="round" stroke-linejoin="round"/>
</svg>
