<svg width="167" height="53" viewBox="0 0 167 53" fill="none" xmlns="http://www.w3.org/2000/svg">
<rect y="0.417969" width="167" height="52" rx="8" fill="#F54987"/>
<path d="M44 12.418C47.8038 12.418 48.2784 12.432 49.7708 12.502C51.2618 12.572 52.2768 12.8058 53.17 13.153C54.094 13.5086 54.8724 13.9902 55.6508 14.7672C56.3627 15.467 56.9135 16.3136 57.265 17.248C57.6108 18.1398 57.846 19.1562 57.916 20.6472C57.9818 22.1396 58 22.6142 58 26.418C58 30.2218 57.986 30.6964 57.916 32.1888C57.846 33.6798 57.6108 34.6948 57.265 35.588C56.9145 36.5229 56.3636 37.3696 55.6508 38.0688C54.9507 38.7804 54.1042 39.3312 53.17 39.683C52.2782 40.0288 51.2618 40.264 49.7708 40.334C48.2784 40.3998 47.8038 40.418 44 40.418C40.1962 40.418 39.7216 40.404 38.2292 40.334C36.7382 40.264 35.7232 40.0288 34.83 39.683C33.8953 39.3322 33.0485 38.7813 32.3492 38.0688C31.6372 37.369 31.0863 36.5224 30.735 35.588C30.3878 34.6962 30.154 33.6798 30.084 32.1888C30.0182 30.6964 30 30.2218 30 26.418C30 22.6142 30.014 22.1396 30.084 20.6472C30.154 19.1548 30.3878 18.1412 30.735 17.248C31.0853 16.313 31.6363 15.4662 32.3492 14.7672C33.0487 14.0549 33.8954 13.504 34.83 13.153C35.7232 12.8058 36.7368 12.572 38.2292 12.502C39.7216 12.4362 40.1962 12.418 44 12.418ZM44 19.418C42.1435 19.418 40.363 20.1555 39.0503 21.4682C37.7375 22.781 37 24.5615 37 26.418C37 28.2745 37.7375 30.055 39.0503 31.3677C40.363 32.6805 42.1435 33.418 44 33.418C45.8565 33.418 47.637 32.6805 48.9497 31.3677C50.2625 30.055 51 28.2745 51 26.418C51 24.5615 50.2625 22.781 48.9497 21.4682C47.637 20.1555 45.8565 19.418 44 19.418V19.418ZM53.1 19.068C53.1 18.6038 52.9156 18.1587 52.5874 17.8305C52.2592 17.5023 51.8141 17.318 51.35 17.318C50.8859 17.318 50.4408 17.5023 50.1126 17.8305C49.7844 18.1587 49.6 18.6038 49.6 19.068C49.6 19.5321 49.7844 19.9772 50.1126 20.3054C50.4408 20.6336 50.8859 20.818 51.35 20.818C51.8141 20.818 52.2592 20.6336 52.5874 20.3054C52.9156 19.9772 53.1 19.5321 53.1 19.068ZM44 22.218C45.1139 22.218 46.1822 22.6605 46.9698 23.4481C47.7575 24.2358 48.2 25.3041 48.2 26.418C48.2 27.5319 47.7575 28.6002 46.9698 29.3878C46.1822 30.1755 45.1139 30.618 44 30.618C42.8861 30.618 41.8178 30.1755 41.0302 29.3878C40.2425 28.6002 39.8 27.5319 39.8 26.418C39.8 25.3041 40.2425 24.2358 41.0302 23.4481C41.8178 22.6605 42.8861 22.218 44 22.218V22.218Z" fill="white"/>
<path d="M66.5703 20.9414H68.1406V32.418H66.5703V20.9414ZM70.4844 24.0508H71.8203V25.2383C72.2161 24.7487 72.6354 24.3971 73.0781 24.1836C73.5208 23.9701 74.013 23.8633 74.5547 23.8633C75.7422 23.8633 76.5443 24.2773 76.9609 25.1055C77.1901 25.5586 77.3047 26.207 77.3047 27.0508V32.418H75.875V27.1445C75.875 26.6341 75.7995 26.2227 75.6484 25.9102C75.3984 25.3893 74.9453 25.1289 74.2891 25.1289C73.9557 25.1289 73.6823 25.1628 73.4688 25.2305C73.0833 25.3451 72.7448 25.5742 72.4531 25.918C72.2188 26.194 72.0651 26.4805 71.9922 26.7773C71.9245 27.069 71.8906 27.4883 71.8906 28.0352V32.418H70.4844V24.0508ZM80.2266 29.793C80.2682 30.2617 80.3854 30.6211 80.5781 30.8711C80.9323 31.3242 81.5469 31.5508 82.4219 31.5508C82.9427 31.5508 83.401 31.4388 83.7969 31.2148C84.1927 30.9857 84.3906 30.6341 84.3906 30.1602C84.3906 29.8008 84.2318 29.5273 83.9141 29.3398C83.7109 29.2253 83.3099 29.0924 82.7109 28.9414L81.5938 28.6602C80.8802 28.4831 80.3542 28.2852 80.0156 28.0664C79.4115 27.6862 79.1094 27.1602 79.1094 26.4883C79.1094 25.6966 79.3932 25.056 79.9609 24.5664C80.5339 24.0768 81.3021 23.832 82.2656 23.832C83.526 23.832 84.4349 24.2018 84.9922 24.9414C85.3411 25.4102 85.5104 25.9154 85.5 26.457H84.1719C84.1458 26.1393 84.0339 25.8503 83.8359 25.5898C83.513 25.2201 82.9531 25.0352 82.1562 25.0352C81.625 25.0352 81.2214 25.1367 80.9453 25.3398C80.6745 25.543 80.5391 25.8112 80.5391 26.1445C80.5391 26.5091 80.7188 26.8008 81.0781 27.0195C81.2865 27.1497 81.5938 27.2643 82 27.3633L82.9297 27.5898C83.9401 27.8346 84.6172 28.0716 84.9609 28.3008C85.5078 28.6602 85.7812 29.2253 85.7812 29.9961C85.7812 30.7409 85.4974 31.3841 84.9297 31.9258C84.3672 32.4674 83.5078 32.7383 82.3516 32.7383C81.1068 32.7383 80.224 32.457 79.7031 31.8945C79.1875 31.3268 78.9115 30.6263 78.875 29.793H80.2266ZM87.6719 21.7148H89.0938V24.0508H90.4297V25.1992H89.0938V30.6602C89.0938 30.9518 89.1927 31.1471 89.3906 31.2461C89.5 31.3034 89.6823 31.332 89.9375 31.332C90.0052 31.332 90.0781 31.332 90.1562 31.332C90.2344 31.3268 90.3255 31.319 90.4297 31.3086V32.418C90.2682 32.4648 90.099 32.4987 89.9219 32.5195C89.75 32.5404 89.5625 32.5508 89.3594 32.5508C88.7031 32.5508 88.2578 32.3841 88.0234 32.0508C87.7891 31.7122 87.6719 31.2747 87.6719 30.7383V25.1992H86.5391V24.0508H87.6719V21.7148ZM92.9219 30.1914C92.9219 30.5977 93.0703 30.918 93.3672 31.1523C93.6641 31.3867 94.0156 31.5039 94.4219 31.5039C94.9167 31.5039 95.3958 31.3893 95.8594 31.1602C96.6406 30.7799 97.0312 30.1576 97.0312 29.293V28.1602C96.8594 28.2695 96.638 28.3607 96.3672 28.4336C96.0964 28.5065 95.8307 28.5586 95.5703 28.5898L94.7188 28.6992C94.2083 28.7669 93.8255 28.8737 93.5703 29.0195C93.138 29.2643 92.9219 29.6549 92.9219 30.1914ZM96.3281 27.3477C96.651 27.306 96.8672 27.1706 96.9766 26.9414C97.0391 26.8164 97.0703 26.6367 97.0703 26.4023C97.0703 25.9232 96.8984 25.5768 96.5547 25.3633C96.2161 25.1445 95.7292 25.0352 95.0938 25.0352C94.3594 25.0352 93.8385 25.2331 93.5312 25.6289C93.3594 25.8477 93.2474 26.1732 93.1953 26.6055H91.8828C91.9089 25.5742 92.2422 24.8581 92.8828 24.457C93.5286 24.0508 94.276 23.8477 95.125 23.8477C96.1094 23.8477 96.9089 24.0352 97.5234 24.4102C98.1328 24.7852 98.4375 25.3685 98.4375 26.1602V30.9805C98.4375 31.1263 98.4661 31.2435 98.5234 31.332C98.5859 31.4206 98.7135 31.4648 98.9062 31.4648C98.9688 31.4648 99.0391 31.4622 99.1172 31.457C99.1953 31.4466 99.2786 31.4336 99.3672 31.418V32.457C99.1484 32.5195 98.9818 32.5586 98.8672 32.5742C98.7526 32.5898 98.5964 32.5977 98.3984 32.5977C97.9141 32.5977 97.5625 32.4258 97.3438 32.082C97.2292 31.8997 97.1484 31.6419 97.1016 31.3086C96.8151 31.6836 96.4036 32.0091 95.8672 32.2852C95.3307 32.5612 94.7396 32.6992 94.0938 32.6992C93.3177 32.6992 92.6823 32.4648 92.1875 31.9961C91.6979 31.5221 91.4531 30.931 91.4531 30.2227C91.4531 29.4466 91.6953 28.8451 92.1797 28.418C92.6641 27.9909 93.2995 27.7279 94.0859 27.6289L96.3281 27.3477ZM103.703 23.9023C104.359 23.9023 104.932 24.0638 105.422 24.3867C105.688 24.569 105.958 24.8346 106.234 25.1836V24.1289H107.531V31.7383C107.531 32.8008 107.375 33.6393 107.062 34.2539C106.479 35.3893 105.378 35.957 103.758 35.957C102.857 35.957 102.099 35.7539 101.484 35.3477C100.87 34.9466 100.526 34.3164 100.453 33.457H101.883C101.951 33.832 102.086 34.1211 102.289 34.3242C102.607 34.6367 103.107 34.793 103.789 34.793C104.867 34.793 105.573 34.4128 105.906 33.6523C106.104 33.2044 106.195 32.4049 106.18 31.2539C105.898 31.681 105.56 31.9987 105.164 32.207C104.768 32.4154 104.245 32.5195 103.594 32.5195C102.688 32.5195 101.893 32.1992 101.211 31.5586C100.534 30.9128 100.195 29.8477 100.195 28.3633C100.195 26.9622 100.536 25.8685 101.219 25.082C101.906 24.2956 102.734 23.9023 103.703 23.9023ZM106.234 28.1992C106.234 27.1628 106.021 26.3945 105.594 25.8945C105.167 25.3945 104.622 25.1445 103.961 25.1445C102.971 25.1445 102.294 25.6081 101.93 26.5352C101.737 27.0299 101.641 27.6784 101.641 28.4805C101.641 29.4232 101.831 30.1419 102.211 30.6367C102.596 31.1263 103.112 31.3711 103.758 31.3711C104.768 31.3711 105.479 30.9154 105.891 30.0039C106.12 29.4883 106.234 28.8867 106.234 28.1992ZM109.695 24.0508H111.031V25.4961C111.141 25.2148 111.409 24.8737 111.836 24.4727C112.263 24.0664 112.755 23.8633 113.312 23.8633C113.339 23.8633 113.383 23.8659 113.445 23.8711C113.508 23.8763 113.615 23.8867 113.766 23.9023V25.3867C113.682 25.3711 113.604 25.3607 113.531 25.3555C113.464 25.3503 113.388 25.3477 113.305 25.3477C112.596 25.3477 112.052 25.5768 111.672 26.0352C111.292 26.4883 111.102 27.0117 111.102 27.6055V32.418H109.695V24.0508ZM116.062 30.1914C116.062 30.5977 116.211 30.918 116.508 31.1523C116.805 31.3867 117.156 31.5039 117.562 31.5039C118.057 31.5039 118.536 31.3893 119 31.1602C119.781 30.7799 120.172 30.1576 120.172 29.293V28.1602C120 28.2695 119.779 28.3607 119.508 28.4336C119.237 28.5065 118.971 28.5586 118.711 28.5898L117.859 28.6992C117.349 28.7669 116.966 28.8737 116.711 29.0195C116.279 29.2643 116.062 29.6549 116.062 30.1914ZM119.469 27.3477C119.792 27.306 120.008 27.1706 120.117 26.9414C120.18 26.8164 120.211 26.6367 120.211 26.4023C120.211 25.9232 120.039 25.5768 119.695 25.3633C119.357 25.1445 118.87 25.0352 118.234 25.0352C117.5 25.0352 116.979 25.2331 116.672 25.6289C116.5 25.8477 116.388 26.1732 116.336 26.6055H115.023C115.049 25.5742 115.383 24.8581 116.023 24.457C116.669 24.0508 117.417 23.8477 118.266 23.8477C119.25 23.8477 120.049 24.0352 120.664 24.4102C121.273 24.7852 121.578 25.3685 121.578 26.1602V30.9805C121.578 31.1263 121.607 31.2435 121.664 31.332C121.727 31.4206 121.854 31.4648 122.047 31.4648C122.109 31.4648 122.18 31.4622 122.258 31.457C122.336 31.4466 122.419 31.4336 122.508 31.418V32.457C122.289 32.5195 122.122 32.5586 122.008 32.5742C121.893 32.5898 121.737 32.5977 121.539 32.5977C121.055 32.5977 120.703 32.4258 120.484 32.082C120.37 31.8997 120.289 31.6419 120.242 31.3086C119.956 31.6836 119.544 32.0091 119.008 32.2852C118.471 32.5612 117.88 32.6992 117.234 32.6992C116.458 32.6992 115.823 32.4648 115.328 31.9961C114.839 31.5221 114.594 30.931 114.594 30.2227C114.594 29.4466 114.836 28.8451 115.32 28.418C115.805 27.9909 116.44 27.7279 117.227 27.6289L119.469 27.3477ZM123.891 24.0508H125.281V25.2383C125.615 24.8268 125.917 24.5273 126.188 24.3398C126.651 24.0221 127.177 23.8633 127.766 23.8633C128.432 23.8633 128.969 24.0273 129.375 24.3555C129.604 24.543 129.812 24.819 130 25.1836C130.312 24.7357 130.68 24.4049 131.102 24.1914C131.523 23.9727 131.997 23.8633 132.523 23.8633C133.648 23.8633 134.414 24.2695 134.82 25.082C135.039 25.5195 135.148 26.1081 135.148 26.8477V32.418H133.688V26.6055C133.688 26.0482 133.547 25.6654 133.266 25.457C132.99 25.2487 132.651 25.1445 132.25 25.1445C131.698 25.1445 131.221 25.3294 130.82 25.6992C130.424 26.069 130.227 26.6862 130.227 27.5508V32.418H128.797V26.957C128.797 26.3893 128.729 25.9753 128.594 25.7148C128.38 25.3242 127.982 25.1289 127.398 25.1289C126.867 25.1289 126.383 25.3346 125.945 25.7461C125.513 26.1576 125.297 26.9023 125.297 27.9805V32.418H123.891V24.0508Z" fill="white"/>
</svg>
