<svg width="1430" height="219" viewBox="0 0 1430 219" fill="none" xmlns="http://www.w3.org/2000/svg">
<path d="M723.485 210.713C723.485 210.713 714.694 209.038 704.936 210.285C695.207 211.531 712.174 211.102 717.508 210.285C722.841 209.467 718.123 192.33 718.123 192.33C718.123 192.33 714.987 191.901 711.852 190.655C708.716 189.409 707.456 182.71 708.394 178.543C709.332 174.375 709.009 186.059 707.456 190.655C705.874 195.251 698.343 192.33 695.53 191.901C692.716 191.473 693.654 170.597 693.332 165.612C693.009 160.588 690.812 204.014 690.812 211.531C690.812 219.048 693.947 211.102 696.145 207.753C698.343 204.404 651.222 208.999 640.526 210.246C629.859 211.492 645.859 210.674 648.995 210.674C652.13 210.674 646.797 167.676 654.651 161.406C662.504 155.135 667.544 182.71 667.837 185.203C668.16 187.695 667.837 110.463 667.515 103.374C667.193 96.2861 650.548 99.2071 648.673 95.8577C646.797 92.5082 650.255 64.9725 652.746 54.5347C655.266 44.0968 651.486 38.6832 652.13 34.9053C652.746 31.1664 654.651 27.8169 656.848 19.4432C659.046 11.1085 657.171 -1.43246 656.848 3.16331C656.526 7.75908 659.984 19.0148 662.826 25.2853C665.639 31.5558 666.607 38.6442 665.962 41.1368C665.346 43.6295 649.317 42.3832 648.379 46.161C647.442 49.9389 665.346 49.0821 668.482 46.161C671.617 43.24 665.962 44.0579 665.024 46.161C664.086 48.2642 666.607 70.8146 668.482 82.8882C670.357 95.0008 669.742 100.843 673.522 99.5966C677.302 98.3503 648.702 100.025 643.046 100.025C637.39 100.025 643.984 96.6756 645.244 96.6756C646.504 96.6756 645.244 112.955 641.786 117.123C638.328 121.29 638.651 112.527 638.651 112.527C638.651 112.527 674.46 112.955 674.46 110.034C674.46 107.113 676.335 125.068 679.5 133.013C682.636 140.959 682.636 132.585 681.376 127.989C680.116 123.393 643.691 123.393 640.233 125.068C636.775 126.743 632.702 133.403 631.764 139.245C630.826 145.087 681.083 148.436 687.998 145.087C694.914 141.737 631.764 142.984 627.691 148.008C623.618 153.032 685.508 159.264 693.361 157.2C701.215 155.096 627.691 151.786 624.878 154.278C622.035 156.771 620.16 186.838 624.878 200.197C629.596 213.556 628.013 188.513 628.013 188.513C628.013 188.513 614.826 188.085 608.233 188.085C601.64 188.085 605.713 183.06 604.16 179.322C602.577 175.544 603.837 194.355 602.284 198.951C600.702 203.547 597.889 201.444 595.691 202.3C593.493 203.118 608.585 209.817 623.032 208.96C637.478 208.142 594.783 208.532 594.783 208.532C594.783 208.532 578.607 208.532 573.83 209.545C569.083 210.557 575.178 211.064 577.259 209.545C579.339 208.026 578.021 190.811 577.054 187.539C576.116 184.229 565.244 185.514 560.673 186.527C556.101 187.539 559.354 199.691 558.006 203.975C556.658 208.259 555.339 162.457 558.006 160.705C560.673 158.913 591.12 163.976 588.482 163.976C585.815 163.976 573.449 145.749 570.021 137.414C566.592 129.08 563.75 110.852 564.306 101.972C564.863 93.1314 565.83 107.036 565.625 118.681C565.449 130.326 554.958 155.135 547.164 162.691C539.369 170.286 533.654 171.532 533.83 167.754C534.035 163.976 589.625 171.026 593.054 169.546C596.482 168.027 586.783 169.818 586.021 170.558C585.259 171.337 583.94 202.456 586.226 207.013C588.511 211.57 587.369 180.957 587.369 180.957C587.369 180.957 543.002 180.957 540.541 179.205C538.079 177.413 541.508 177.179 543.208 177.179C544.907 177.179 543.002 200.704 543.208 206.273C543.383 211.842 557.479 211.57 564.16 209.311C570.812 207.052 550.651 209.311 549.684 209.311C548.746 209.311 525.567 209.272 525.567 209.272C521.376 206.779 518.446 189.526 522.636 179.477C526.827 169.468 523.252 208.688 522.841 210.362C522.431 212.037 408.907 211.765 385.875 210.09C362.842 208.415 385.259 211.492 386.724 210.362C388.19 209.233 383.589 179.477 385.054 174.726C386.519 170.013 415.208 174.453 418.988 175.271C422.768 176.089 420.248 209.233 421.303 208.104C422.358 206.974 422.563 183.878 423.384 176.362C424.233 168.845 430.915 190.85 432.175 197.783C433.435 204.754 435.105 188.046 438.446 182.749C441.787 177.452 450.373 197.237 452.072 201.132C453.743 205.027 456.058 185.826 461.069 179.127C466.109 172.428 470.915 201.132 474.46 205.572C478.006 210.012 475.31 177.725 475.31 174.959C475.31 172.194 518.446 174.414 526.416 174.142C534.387 173.869 531.662 176.362 526.211 175.816C520.761 175.271 507.984 163.859 507.984 158.835C507.984 153.811 510.065 163.859 508.394 166.625C506.724 169.39 416.878 167.17 415.823 161.328C414.768 155.486 503.354 163.548 503.354 163.548C503.354 163.548 503.354 122.069 503.764 115.098C504.175 108.126 506.285 113.423 505.845 117.045C505.435 120.667 495.178 122.614 494.534 123.744C493.918 124.873 494.534 147.969 493.068 154.629C491.603 161.289 491.808 109.801 494.329 107.853C496.849 105.906 494.944 111.748 490.548 116.772C486.153 121.797 477.567 117.902 473.581 119.538C469.596 121.212 473.786 154.629 472.321 159.614C470.856 164.638 470.241 115.098 470.651 108.399C471.061 101.7 473.171 112.293 470.446 116.188C467.721 120.083 436.102 112.839 433.171 115.059C430.241 117.279 431.911 151.241 430.036 158.485C428.16 165.729 426.461 108.944 428.16 106.14C429.831 103.374 429.42 112.839 428.16 116.422C426.9 120.044 405.332 116.422 403.252 111.125C401.171 105.828 404.307 108.36 407.032 112.8C409.757 117.24 405.772 158.446 408.497 162.613C411.222 166.781 409.757 125.302 409.142 124.211C408.497 123.082 395.75 123.393 392.585 120.317C389.45 117.24 392.995 115.877 396.131 120.589C399.266 125.302 395.281 158.991 395.281 165.417C395.281 171.805 396.131 158.446 395.281 159.03C394.431 159.575 376.234 174.064 372.864 173.791C369.523 173.518 374.329 171.571 376.644 171.571C378.959 171.571 375.794 204.676 378.724 208.571C381.655 212.466 378.607 203.43 378.607 203.43C378.607 203.43 302.651 201.21 302.651 196.77C302.651 192.33 308.014 199.886 311.355 198.99C314.695 198.094 315.369 193.226 321.728 187.89C328.087 182.554 336.439 196.77 340.453 198.561C344.468 200.353 344.146 196.77 349.157 191.434C354.168 186.098 365.538 200.781 365.538 200.781C365.538 200.781 365.86 169.663 366.212 165.651C366.534 161.639 368.878 166.547 368.556 168.338C368.234 170.13 357.508 162.107 356.834 159.887C356.16 157.667 356.834 142.088 356.512 136.752C356.19 131.416 350.153 122.536 345.816 122.536C341.479 122.536 346.138 124.756 348.834 123.861C351.501 122.965 351.179 100.298 348.16 92.2745C345.142 84.2903 329.083 90.483 325.743 94.0661C322.402 97.6103 339.457 96.2861 344.468 90.0545C349.479 83.823 340.776 71.8272 340.776 71.8272C340.776 71.8272 342.446 66.063 342.124 62.9473C341.801 59.8315 339.105 50.0558 339.105 50.0558C339.105 50.0558 339.105 39.8126 334.417 28.7127C329.728 17.6127 329.728 10.018 331.75 5.14962C333.772 0.242272 331.076 18.0411 325.743 27.3885C320.38 36.7358 320.732 42.0716 320.732 48.7315C320.732 55.3915 330.754 58.5073 337.464 55.3915C344.146 52.2757 323.75 51.8473 320.058 59.4031C316.366 66.9588 330.754 74.0862 339.457 69.6462C348.16 65.2062 319.062 70.9704 319.062 79.8893C319.062 88.7693 334.446 89.2366 342.153 87.4451C344.087 87.0166 344.878 86.5493 344.878 86.1209C344.79 84.8745 337.142 83.8619 329.113 83.8619C318.417 83.8619 314.402 89.6261 312.058 94.9619C309.714 100.298 310.388 104.738 311.736 111.865C313.084 118.992 342.505 122.108 347.867 118.097C353.23 114.085 316.424 114.981 311.062 118.525C305.699 122.069 301.684 132.312 302.036 133.636C302.358 134.961 302.036 146.956 302.358 152.76C302.681 158.524 341.831 161.211 351.882 159.42C361.904 157.628 309.391 159.42 305.728 159.42C302.036 159.42 292.336 164.327 287.003 166.547C281.64 168.767 286.007 166.118 290.344 163.431C294.681 160.744 289.347 175.894 289.347 177.647C289.347 179.438 352.908 183.411 363.604 180.763C374.3 178.114 298.373 179.438 296.703 180.334C295.032 181.23 296.703 192.33 297.025 202.106C297.347 211.881 353.23 212.349 369.611 208.337C385.992 204.326 294.622 206.624 294.622 206.624C294.622 206.624 204.805 202.456 188.6 207.364C172.395 212.271 288.38 210.752 288.38 208.882C288.38 207.013 288.38 189.253 287.53 187.345C286.681 185.436 226.695 182.048 215.326 184.696C203.956 187.345 275.868 182.827 275.868 181.658C275.868 180.529 275.868 168.066 275.868 165.028C275.868 161.99 196.571 166.897 187.194 160.861C177.816 154.824 246.329 161.99 250.021 162.379C253.714 162.769 252.014 173.713 253.157 174.843C254.3 175.972 254.857 151.786 254.857 145.749C254.857 139.712 256.263 145.749 255.999 147.268C255.706 148.787 232.703 143.49 223.882 144.23C215.062 144.97 231.267 147.268 234.695 146.1C238.095 144.97 232.996 121.524 232.146 115.877C231.296 110.229 227.018 104.932 219.926 99.6355C212.805 94.3387 208.556 95.8577 209.406 96.2471C210.256 96.6366 209.406 102.284 208.556 107.191C207.706 112.099 203.428 111.359 200.879 114.358C198.329 117.395 195.75 125.691 186.373 130.209C176.996 134.727 182.974 128.301 182.974 128.301C182.974 128.301 182.681 135.467 182.974 141.893C183.267 148.32 202.578 147.93 208.849 146.061C215.091 144.191 165.655 145.321 163.077 147.58C160.527 149.838 162.784 157.394 164.483 171.376C166.183 185.358 165.89 160.432 165.89 160.432C165.89 160.432 146.842 160.432 145.436 160.822C144 161.211 144.586 167.637 145.143 175.193C145.699 182.749 185.494 184.618 198.857 181.619C212.219 178.582 135.179 182.009 135.179 182.009C135.179 182.009 135.179 199.029 135.179 203.936C135.179 208.844 163.604 212.232 174.974 210.752C186.344 209.233 128.351 210.362 128.351 210.362C128.351 210.362 125.157 174.998 122.637 180.023C120.117 185.047 119.179 205.494 120.762 203.001C122.344 200.509 81.4943 203.43 80.8789 201.755C80.2636 200.08 74.9009 183.8 71.7654 189.643C68.6299 195.485 71.7654 203.43 67.9852 203.858C64.205 204.287 30.3003 203.858 30.3003 203.858C30.3003 203.858 39.7362 182.983 39.4138 181.736C39.0915 180.49 29.978 177.569 35.6336 181.736C41.2893 185.904 113.553 182.165 113.553 179.633C113.553 177.14 111.033 165.028 109.773 166.274C108.513 167.521 109.773 177.958 107.897 173.363C106.022 168.767 101.304 157.083 102.564 155.408C103.824 153.733 107.897 150.384 105.084 154.162C102.271 157.901 45.7142 160.432 45.3918 157.901C45.0695 155.408 46.9743 140.764 46.9743 142.439C46.9743 144.113 49.4944 155.797 50.7545 152.876C52.0145 149.955 49.4944 138.271 52.3369 137.414C55.1501 136.596 98.8423 141.582 99.4576 136.596C100.073 131.572 99.1353 119.888 98.5199 121.563C97.9045 123.238 112.029 126.587 95.9998 127.405C79.9705 128.223 56.7325 132.429 55.7947 128.223C54.857 124.055 52.3369 114.864 51.7215 118.213C51.1061 121.563 54.857 130.326 56.4394 124.484C58.0218 118.642 57.0548 111.943 58.6372 111.125C60.2196 110.307 95.3844 112.371 95.3844 112.371C95.3844 112.371 95.9998 127.405 95.0621 120.706C94.1243 114.007 94.1243 96.9092 93.1866 97.3377C92.2489 97.7661 90.9888 100.687 90.9888 100.687C90.9888 100.687 52.0438 100.687 53.5969 103.18C55.1794 105.672 56.4101 110.268 57.0548 104.854C57.6702 99.4408 58.3149 91.0672 58.3149 91.0672C58.3149 91.0672 58.3149 94.4166 60.5127 94.4166C62.7105 94.4166 90.6665 96.0913 90.6665 91.4956C90.6665 86.8998 90.3441 75.2156 89.4064 77.3188C88.4687 79.4219 87.824 82.7325 86.8862 83.1609C85.9485 83.5893 60.1903 87.3282 59.868 83.9788C59.5457 80.6293 60.1903 71.4378 60.8057 73.1125C61.4211 74.7872 61.7434 81.0577 63.6189 78.1367C65.4944 75.2156 62.0365 63.1031 66.139 62.2852C70.2123 61.4673 84.0438 59.3641 84.9815 61.8568C85.9192 64.3494 87.1793 79.383 85.5969 76.0335C84.0145 72.6841 84.0145 58.0789 83.3991 56.4041C82.7837 54.7294 79.6189 39.6958 78.0658 35.5284C76.4833 31.3611 74.9302 -0.380883 74.9302 3.397C74.9302 7.17487 74.3148 28.4401 73.0548 34.2821C71.7947 40.1242 69.2746 62.6746 68.6592 65.5957C68.0438 68.5167 66.4614 83.1219 69.9193 79.383C73.3771 75.6051 77.4504 70.1915 77.7727 73.5409C78.0951 76.8904 79.6482 80.6293 80.5859 77.7083C81.5236 74.7872 80.2636 71.8662 81.5236 74.7872C82.7837 77.7083 89.3771 123.238 87.7947 121.563C86.2123 119.888 83.3991 110.697 81.8167 115.292C80.2343 119.888 80.2343 124.912 77.4211 123.238C74.6079 121.563 72.3808 115.292 70.5053 117.824C68.6299 120.316 65.7874 124.912 65.465 122.848C65.1427 120.745 64.5273 116.578 63.2673 119.499C62.0072 122.42 53.216 160.822 55.0914 157.511C56.9669 154.162 60.1317 144.152 62.3295 148.748C64.5273 153.344 63.5896 157.94 67.0475 153.344C70.5053 148.748 71.1207 143.334 76.161 147.502C81.2013 151.669 77.7434 153.772 82.432 150.423C87.15 147.073 92.8057 137.492 95.0034 145.009C97.2012 152.526 107.253 185.943 103.795 179.244C100.337 172.545 97.5236 162.107 95.6188 167.988C93.7434 173.83 94.6811 179.672 91.5456 176.323C88.4101 172.973 82.432 162.535 80.5566 167.559C78.6811 172.584 77.0987 179.244 75.5163 175.505C73.9339 171.766 72.0584 163.821 68.2782 167.559C64.498 171.337 62.0072 177.179 60.7471 175.076C59.487 172.973 55.7068 165.067 53.216 168.806C50.6959 172.545 48.8204 178.815 48.8204 175.076C48.8204 171.298 48.205 162.535 46.6226 165.067C45.0402 167.559 39.3845 195.134 40.6446 195.952C41.9047 196.77 29.0109 198.445 29.0109 195.952C29.0109 193.459 27.4285 178.815 24.9377 183.839C22.4175 188.864 19.6043 211.803 25.26 214.335C30.9157 216.828 125.773 217.685 119.824 214.763C113.729 211.959 0 212.388 0 212.388" stroke="#CFEECF" stroke-width="3" stroke-miterlimit="10" stroke-linecap="round" stroke-linejoin="round"/>
<path d="M1428 210.713C1428 210.713 1419.21 209.038 1409.45 210.285C1399.72 211.531 1416.69 211.102 1422.02 210.285C1427.36 209.467 1422.64 192.33 1422.64 192.33C1422.64 192.33 1419.5 191.901 1416.37 190.655C1413.23 189.409 1411.97 182.71 1412.91 178.543C1413.85 174.375 1413.52 186.059 1411.97 190.655C1410.39 195.251 1402.86 192.33 1400.04 191.901C1397.23 191.473 1398.17 170.597 1397.85 165.612C1397.52 160.588 1395.33 204.014 1395.33 211.531C1395.33 219.048 1398.46 211.102 1400.66 207.753C1402.86 204.404 1355.74 208.999 1345.04 210.246C1334.37 211.492 1350.37 210.674 1353.51 210.674C1356.64 210.674 1351.31 167.676 1359.16 161.406C1367.02 155.135 1372.06 182.71 1372.35 185.203C1372.67 187.695 1372.35 110.463 1372.03 103.374C1371.71 96.2861 1355.06 99.2071 1353.19 95.8577C1351.31 92.5082 1354.77 64.9725 1357.26 54.5347C1359.78 44.0968 1356 38.6832 1356.64 34.9053C1357.26 31.1664 1359.16 27.8169 1361.36 19.4432C1363.56 11.1085 1361.69 -1.43246 1361.36 3.16331C1361.04 7.75908 1364.5 19.0148 1367.34 25.2853C1370.15 31.5558 1371.12 38.6442 1370.48 41.1368C1369.86 43.6295 1353.83 42.3832 1352.89 46.161C1351.96 49.9389 1369.86 49.0821 1373 46.161C1376.13 43.24 1370.48 44.0579 1369.54 46.161C1368.6 48.2642 1371.12 70.8146 1373 82.8882C1374.87 95.0008 1374.26 100.843 1378.04 99.5966C1381.82 98.3503 1353.22 100.025 1347.56 100.025C1341.9 100.025 1348.5 96.6756 1349.76 96.6756C1351.02 96.6756 1349.76 112.955 1346.3 117.123C1342.84 121.29 1343.16 112.527 1343.16 112.527C1343.16 112.527 1378.97 112.955 1378.97 110.034C1378.97 107.113 1380.85 125.068 1384.01 133.013C1387.15 140.959 1387.15 132.585 1385.89 127.989C1384.63 123.393 1348.21 123.393 1344.75 125.068C1341.29 126.743 1337.22 133.403 1336.28 139.245C1335.34 145.087 1385.6 148.436 1392.51 145.087C1399.43 141.737 1336.28 142.984 1332.21 148.008C1328.13 153.032 1390.02 159.264 1397.88 157.2C1405.73 155.096 1332.21 151.786 1329.39 154.278C1326.55 156.771 1324.67 186.838 1329.39 200.197C1334.11 213.556 1332.53 188.513 1332.53 188.513C1332.53 188.513 1319.34 188.085 1312.75 188.085C1306.15 188.085 1310.23 183.06 1308.67 179.322C1307.09 175.544 1308.35 194.355 1306.8 198.951C1305.22 203.547 1302.4 201.444 1300.21 202.3C1298.01 203.118 1313.1 209.817 1327.55 208.96C1341.99 208.142 1299.3 208.532 1299.3 208.532C1299.3 208.532 1283.12 208.532 1278.34 209.545C1273.6 210.557 1279.69 211.064 1281.77 209.545C1283.85 208.026 1282.54 190.811 1281.57 187.539C1280.63 184.229 1269.76 185.514 1265.19 186.527C1260.62 187.539 1263.87 199.691 1262.52 203.975C1261.17 208.259 1259.85 162.457 1262.52 160.705C1265.19 158.913 1295.63 163.976 1293 163.976C1290.33 163.976 1277.96 145.749 1274.54 137.414C1271.11 129.08 1268.26 110.852 1268.82 101.972C1269.38 93.1314 1270.34 107.036 1270.14 118.681C1269.96 130.326 1259.47 155.135 1251.68 162.691C1243.88 170.286 1238.17 171.532 1238.34 167.754C1238.55 163.976 1294.14 171.026 1297.57 169.546C1301 168.027 1291.3 169.818 1290.54 170.558C1289.77 171.337 1288.45 202.456 1290.74 207.013C1293.03 211.57 1291.88 180.957 1291.88 180.957C1291.88 180.957 1247.52 180.957 1245.06 179.205C1242.59 177.413 1246.02 177.179 1247.72 177.179C1249.42 177.179 1247.52 200.704 1247.72 206.273C1247.9 211.842 1261.99 211.57 1268.67 209.311C1275.33 207.052 1255.17 209.311 1254.2 209.311C1253.26 209.311 1230.08 209.272 1230.08 209.272C1225.89 206.779 1222.96 189.526 1227.15 179.477C1231.34 169.468 1227.77 208.688 1227.36 210.362C1226.95 212.037 1113.42 211.765 1090.39 210.09C1067.36 208.415 1089.77 211.492 1091.24 210.362C1092.7 209.233 1088.1 179.477 1089.57 174.726C1091.03 170.013 1119.72 174.453 1123.5 175.271C1127.28 176.089 1124.76 209.233 1125.82 208.104C1126.87 206.974 1127.08 183.878 1127.9 176.362C1128.75 168.845 1135.43 190.85 1136.69 197.783C1137.95 204.754 1139.62 188.046 1142.96 182.749C1146.3 177.452 1154.89 197.237 1156.59 201.132C1158.26 205.027 1160.57 185.826 1165.58 179.127C1170.62 172.428 1175.43 201.132 1178.97 205.572C1182.52 210.012 1179.82 177.725 1179.82 174.959C1179.82 172.194 1222.96 174.414 1230.93 174.142C1238.9 173.869 1236.18 176.362 1230.73 175.816C1225.28 175.271 1212.5 163.859 1212.5 158.835C1212.5 153.811 1214.58 163.859 1212.91 166.625C1211.24 169.39 1121.39 167.17 1120.34 161.328C1119.28 155.486 1207.87 163.548 1207.87 163.548C1207.87 163.548 1207.87 122.069 1208.28 115.098C1208.69 108.126 1210.8 113.423 1210.36 117.045C1209.95 120.667 1199.69 122.614 1199.05 123.744C1198.43 124.873 1199.05 147.969 1197.58 154.629C1196.12 161.289 1196.32 109.801 1198.84 107.853C1201.36 105.906 1199.46 111.748 1195.06 116.772C1190.67 121.797 1182.08 117.902 1178.1 119.538C1174.11 121.212 1178.3 154.629 1176.84 159.614C1175.37 164.638 1174.76 115.098 1175.17 108.399C1175.58 101.7 1177.69 112.293 1174.96 116.188C1172.23 120.083 1140.62 112.839 1137.69 115.059C1134.76 117.279 1136.43 151.241 1134.55 158.485C1132.67 165.729 1130.97 108.944 1132.67 106.14C1134.34 103.374 1133.93 112.839 1132.67 116.422C1131.41 120.044 1109.85 116.422 1107.77 111.125C1105.69 105.828 1108.82 108.36 1111.55 112.8C1114.27 117.24 1110.29 158.446 1113.01 162.613C1115.74 166.781 1114.27 125.302 1113.66 124.211C1113.01 123.082 1100.26 123.393 1097.1 120.317C1093.96 117.24 1097.51 115.877 1100.65 120.589C1103.78 125.302 1099.8 158.991 1099.8 165.417C1099.8 171.805 1100.65 158.446 1099.8 159.03C1098.95 159.575 1080.75 174.064 1077.38 173.791C1074.04 173.518 1078.84 171.571 1081.16 171.571C1083.47 171.571 1080.31 204.676 1083.24 208.571C1086.17 212.466 1083.12 203.43 1083.12 203.43C1083.12 203.43 1007.17 201.21 1007.17 196.77C1007.17 192.33 1012.53 199.886 1015.87 198.99C1019.21 198.094 1019.88 193.226 1026.24 187.89C1032.6 182.554 1040.95 196.77 1044.97 198.561C1048.98 200.353 1048.66 196.77 1053.67 191.434C1058.68 186.098 1070.05 200.781 1070.05 200.781C1070.05 200.781 1070.37 169.663 1070.73 165.651C1071.05 161.639 1073.39 166.547 1073.07 168.338C1072.75 170.13 1062.02 162.107 1061.35 159.887C1060.67 157.667 1061.35 142.088 1061.03 136.752C1060.7 131.416 1054.67 122.536 1050.33 122.536C1045.99 122.536 1050.65 124.756 1053.35 123.861C1056.02 122.965 1055.69 100.298 1052.67 92.2745C1049.66 84.2903 1033.6 90.483 1030.26 94.0661C1026.92 97.6103 1043.97 96.2861 1048.98 90.0545C1053.99 83.823 1045.29 71.8272 1045.29 71.8272C1045.29 71.8272 1046.96 66.063 1046.64 62.9473C1046.32 59.8315 1043.62 50.0558 1043.62 50.0558C1043.62 50.0558 1043.62 39.8126 1038.93 28.7127C1034.24 17.6127 1034.24 10.018 1036.26 5.14962C1038.29 0.242272 1035.59 18.0411 1030.26 27.3885C1024.89 36.7358 1025.25 42.0716 1025.25 48.7315C1025.25 55.3915 1035.27 58.5073 1041.98 55.3915C1048.66 52.2757 1028.26 51.8473 1024.57 59.4031C1020.88 66.9588 1035.27 74.0862 1043.97 69.6462C1052.67 65.2062 1023.58 70.9704 1023.58 79.8893C1023.58 88.7693 1038.96 89.2366 1046.67 87.4451C1048.6 87.0166 1049.39 86.5493 1049.39 86.1209C1049.3 84.8745 1041.66 83.8619 1033.63 83.8619C1022.93 83.8619 1018.92 89.6261 1016.57 94.9619C1014.23 100.298 1014.9 104.738 1016.25 111.865C1017.6 118.992 1047.02 122.108 1052.38 118.097C1057.74 114.085 1020.94 114.981 1015.58 118.525C1010.21 122.069 1006.2 132.312 1006.55 133.636C1006.87 134.961 1006.55 146.956 1006.87 152.76C1007.2 158.524 1046.35 161.211 1056.4 159.42C1066.42 157.628 1013.91 159.42 1010.24 159.42C1006.55 159.42 996.851 164.327 991.517 166.547C986.155 168.767 990.521 166.118 994.858 163.431C999.195 160.744 993.862 175.894 993.862 177.647C993.862 179.438 1057.42 183.411 1068.12 180.763C1078.81 178.114 1002.89 179.438 1001.22 180.334C999.547 181.23 1001.22 192.33 1001.54 202.106C1001.86 211.881 1057.74 212.349 1074.13 208.337C1090.51 204.326 999.136 206.624 999.136 206.624C999.136 206.624 909.32 202.456 893.115 207.364C876.91 212.271 992.895 210.752 992.895 208.882C992.895 207.013 992.895 189.253 992.045 187.345C991.195 185.436 931.21 182.048 919.84 184.696C908.47 187.345 980.382 182.827 980.382 181.658C980.382 180.529 980.382 168.066 980.382 165.028C980.382 161.99 901.085 166.897 891.708 160.861C882.331 154.824 950.844 161.99 954.536 162.379C958.228 162.769 956.528 173.713 957.671 174.843C958.814 175.972 959.371 151.786 959.371 145.749C959.371 139.712 960.778 145.749 960.514 147.268C960.221 148.787 937.217 143.49 928.397 144.23C919.576 144.97 935.781 147.268 939.21 146.1C942.609 144.97 937.51 121.524 936.66 115.877C935.811 110.229 931.532 104.932 924.441 99.6355C917.32 94.3387 913.071 95.8577 913.921 96.2471C914.77 96.6366 913.921 102.284 913.071 107.191C912.221 112.099 907.943 111.359 905.393 114.358C902.844 117.395 900.265 125.691 890.888 130.209C881.51 134.727 887.488 128.301 887.488 128.301C887.488 128.301 887.195 135.467 887.488 141.893C887.781 148.32 907.093 147.93 913.364 146.061C919.605 144.191 870.17 145.321 867.591 147.58C865.042 149.838 867.298 157.394 868.998 171.376C870.697 185.358 870.404 160.432 870.404 160.432C870.404 160.432 851.357 160.432 849.95 160.822C848.514 161.211 849.1 167.637 849.657 175.193C850.214 182.749 890.008 184.618 903.371 181.619C916.734 178.582 839.694 182.009 839.694 182.009C839.694 182.009 839.694 199.029 839.694 203.936C839.694 208.844 868.118 212.232 879.488 210.752C890.858 209.233 832.866 210.362 832.866 210.362C832.866 210.362 829.672 174.998 827.151 180.023C824.631 185.047 823.694 205.494 825.276 203.001C826.858 200.509 786.009 203.43 785.393 201.755C784.778 200.08 779.415 183.8 776.28 189.643C773.144 195.485 776.28 203.43 772.5 203.858C768.719 204.287 734.815 203.858 734.815 203.858C734.815 203.858 744.251 182.983 743.928 181.736C743.606 180.49 734.492 177.569 740.148 181.736C745.804 185.904 818.067 182.165 818.067 179.633C818.067 177.14 815.547 165.028 814.287 166.274C813.027 167.521 814.287 177.958 812.412 173.363C810.536 168.767 805.818 157.083 807.078 155.408C808.338 153.733 812.412 150.384 809.598 154.162C806.785 157.901 750.229 160.432 749.906 157.901C749.584 155.408 751.489 140.764 751.489 142.439C751.489 144.113 754.009 155.797 755.269 152.876C756.529 149.955 754.009 138.271 756.851 137.414C759.664 136.596 803.357 141.582 803.972 136.596C804.587 131.572 803.65 119.888 803.034 121.563C802.419 123.238 816.543 126.587 800.514 127.405C784.485 128.223 761.247 132.429 760.309 128.223C759.371 124.055 756.851 114.864 756.236 118.213C755.621 121.563 759.371 130.326 760.954 124.484C762.536 118.642 761.569 111.943 763.152 111.125C764.734 110.307 799.899 112.371 799.899 112.371C799.899 112.371 800.514 127.405 799.576 120.706C798.639 114.007 798.639 96.9092 797.701 97.3377C796.763 97.7661 795.503 100.687 795.503 100.687C795.503 100.687 756.558 100.687 758.111 103.18C759.694 105.672 760.925 110.268 761.569 104.854C762.185 99.4408 762.829 91.0672 762.829 91.0672C762.829 91.0672 762.829 94.4166 765.027 94.4166C767.225 94.4166 795.181 96.0913 795.181 91.4956C795.181 86.8998 794.859 75.2156 793.921 77.3188C792.983 79.4219 792.338 82.7325 791.401 83.1609C790.463 83.5893 764.705 87.3282 764.382 83.9788C764.06 80.6293 764.705 71.4378 765.32 73.1125C765.936 74.7872 766.258 81.0577 768.133 78.1367C770.009 75.2156 766.551 63.1031 770.653 62.2852C774.727 61.4673 788.558 59.3641 789.496 61.8568C790.434 64.3494 791.694 79.383 790.111 76.0335C788.529 72.6841 788.529 58.0789 787.913 56.4041C787.298 54.7294 784.133 39.6958 782.58 35.5284C780.998 31.3611 779.445 -0.380883 779.445 3.397C779.445 7.17487 778.829 28.4401 777.569 34.2821C776.309 40.1242 773.789 62.6746 773.174 65.5957C772.558 68.5167 770.976 83.1219 774.434 79.383C777.892 75.6051 781.965 70.1915 782.287 73.5409C782.609 76.8904 784.163 80.6293 785.1 77.7083C786.038 74.7872 784.778 71.8662 786.038 74.7872C787.298 77.7083 793.891 123.238 792.309 121.563C790.727 119.888 787.913 110.697 786.331 115.292C784.749 119.888 784.749 124.912 781.935 123.238C779.122 121.563 776.895 115.292 775.02 117.824C773.144 120.316 770.302 124.912 769.979 122.848C769.657 120.745 769.042 116.578 767.782 119.499C766.522 122.42 757.73 160.822 759.606 157.511C761.481 154.162 764.646 144.152 766.844 148.748C769.042 153.344 768.104 157.94 771.562 153.344C775.02 148.748 775.635 143.334 780.675 147.502C785.716 151.669 782.258 153.772 786.946 150.423C791.664 147.073 797.32 137.492 799.518 145.009C801.716 152.526 811.767 185.943 808.309 179.244C804.851 172.545 802.038 162.107 800.133 167.988C798.258 173.83 799.196 179.672 796.06 176.323C792.924 172.973 786.946 162.535 785.071 167.559C783.196 172.584 781.613 179.244 780.031 175.505C778.448 171.766 776.573 163.821 772.793 167.559C769.012 171.337 766.522 177.179 765.262 175.076C764.001 172.973 760.221 165.067 757.73 168.806C755.21 172.545 753.335 178.815 753.335 175.076C753.335 171.298 752.719 162.535 751.137 165.067C749.555 167.559 743.899 195.134 745.159 195.952C746.419 196.77 733.525 198.445 733.525 195.952C733.525 193.459 731.943 178.815 729.452 183.839C726.932 188.864 724.119 211.803 729.774 214.335C735.43 216.828 830.287 217.685 824.338 214.763C818.243 211.959 704.514 212.388 704.514 212.388" stroke="#CFEECF" stroke-width="3" stroke-miterlimit="10" stroke-linecap="round" stroke-linejoin="round"/>
</svg>
