<svg width="168" height="53" viewBox="0 0 168 53" fill="none" xmlns="http://www.w3.org/2000/svg">
<rect y="0.417969" width="168" height="52" rx="8" fill="#23B776"/>
<path d="M30.0056 40.4179L31.8984 33.4628C30.6512 31.3248 29.996 28.8931 30 26.418C30 18.6858 36.2678 12.418 44 12.418C51.7322 12.418 58 18.6858 58 26.418C58 34.1502 51.7322 40.4179 44 40.4179C41.5259 40.4219 39.0953 39.7672 36.958 38.521L30.0056 40.4179ZM38.9474 19.8492C38.7666 19.8604 38.59 19.908 38.428 19.9892C38.2761 20.0752 38.1375 20.1827 38.0164 20.3084C37.8484 20.4666 37.7532 20.6038 37.651 20.7368C37.1336 21.4102 36.8553 22.2367 36.86 23.086C36.8628 23.772 37.042 24.4398 37.322 25.0642C37.8946 26.327 38.8368 27.664 40.0814 28.903C40.381 29.2012 40.6736 29.5008 40.9886 29.7794C42.5334 31.1394 44.3742 32.1202 46.3646 32.6438L47.1612 32.7656C47.4202 32.7796 47.6792 32.76 47.9396 32.7474C48.3473 32.7263 48.7455 32.6159 49.1058 32.424C49.2891 32.3295 49.4681 32.2267 49.642 32.116C49.642 32.116 49.7022 32.0768 49.817 31.99C50.006 31.85 50.1222 31.7506 50.279 31.5868C50.3952 31.4664 50.496 31.325 50.573 31.164C50.6822 30.9358 50.7914 30.5004 50.8362 30.1378C50.8698 29.8606 50.86 29.7094 50.8558 29.6156C50.8502 29.4658 50.7256 29.3104 50.5898 29.2446L49.775 28.8792C49.775 28.8792 48.557 28.3486 47.8136 28.0098C47.7352 27.9756 47.6512 27.9561 47.5658 27.9524C47.47 27.9425 47.3732 27.9533 47.282 27.984C47.1907 28.0146 47.107 28.0645 47.0366 28.1302V28.1274C47.0296 28.1274 46.9358 28.2072 45.9236 29.4336C45.8655 29.5116 45.7855 29.5706 45.6937 29.603C45.602 29.6354 45.5026 29.6398 45.4084 29.6156C45.3172 29.5912 45.2278 29.5603 45.141 29.5232C44.9674 29.4504 44.9072 29.4224 44.7882 29.3706L44.7812 29.3678C43.9803 29.0181 43.2387 28.5457 42.5832 27.9678C42.4068 27.8138 42.243 27.6458 42.075 27.4834C41.5242 26.9559 41.0442 26.3592 40.647 25.7082L40.5644 25.5752C40.5051 25.4858 40.4571 25.3894 40.4216 25.2882C40.3684 25.0824 40.507 24.9172 40.507 24.9172C40.507 24.9172 40.8472 24.5448 41.0054 24.3432C41.1371 24.1756 41.26 24.0013 41.3736 23.821C41.5388 23.555 41.5906 23.282 41.5038 23.0706C41.1118 22.113 40.7058 21.1596 40.2886 20.2132C40.206 20.0256 39.961 19.8912 39.7384 19.8646C39.6628 19.8562 39.5872 19.8478 39.5116 19.8422C39.3236 19.8328 39.1352 19.8347 38.9474 19.8478V19.8492Z" fill="white"/>
<path d="M66.9766 20.9414L69.1406 30.2773L71.7344 20.9414H73.4219L76.0156 30.2773L78.1797 20.9414H79.8828L76.8672 32.418H75.2344L72.5859 22.9023L69.9219 32.418H68.2891L65.2891 20.9414H66.9766ZM81.1406 20.9023H82.5469V25.1836C82.8802 24.7617 83.1797 24.4648 83.4453 24.293C83.8984 23.9961 84.4635 23.8477 85.1406 23.8477C86.3542 23.8477 87.1771 24.2721 87.6094 25.1211C87.8438 25.5846 87.9609 26.2279 87.9609 27.0508V32.418H86.5156V27.1445C86.5156 26.5299 86.4375 26.0794 86.2812 25.793C86.026 25.3346 85.5469 25.1055 84.8438 25.1055C84.2604 25.1055 83.7318 25.306 83.2578 25.707C82.7839 26.1081 82.5469 26.8659 82.5469 27.9805V32.418H81.1406V20.9023ZM91.125 30.1914C91.125 30.5977 91.2734 30.918 91.5703 31.1523C91.8672 31.3867 92.2188 31.5039 92.625 31.5039C93.1198 31.5039 93.599 31.3893 94.0625 31.1602C94.8438 30.7799 95.2344 30.1576 95.2344 29.293V28.1602C95.0625 28.2695 94.8411 28.3607 94.5703 28.4336C94.2995 28.5065 94.0339 28.5586 93.7734 28.5898L92.9219 28.6992C92.4115 28.7669 92.0286 28.8737 91.7734 29.0195C91.3411 29.2643 91.125 29.6549 91.125 30.1914ZM94.5312 27.3477C94.8542 27.306 95.0703 27.1706 95.1797 26.9414C95.2422 26.8164 95.2734 26.6367 95.2734 26.4023C95.2734 25.9232 95.1016 25.5768 94.7578 25.3633C94.4193 25.1445 93.9323 25.0352 93.2969 25.0352C92.5625 25.0352 92.0417 25.2331 91.7344 25.6289C91.5625 25.8477 91.4505 26.1732 91.3984 26.6055H90.0859C90.112 25.5742 90.4453 24.8581 91.0859 24.457C91.7318 24.0508 92.4792 23.8477 93.3281 23.8477C94.3125 23.8477 95.112 24.0352 95.7266 24.4102C96.3359 24.7852 96.6406 25.3685 96.6406 26.1602V30.9805C96.6406 31.1263 96.6693 31.2435 96.7266 31.332C96.7891 31.4206 96.9167 31.4648 97.1094 31.4648C97.1719 31.4648 97.2422 31.4622 97.3203 31.457C97.3984 31.4466 97.4818 31.4336 97.5703 31.418V32.457C97.3516 32.5195 97.1849 32.5586 97.0703 32.5742C96.9557 32.5898 96.7995 32.5977 96.6016 32.5977C96.1172 32.5977 95.7656 32.4258 95.5469 32.082C95.4323 31.8997 95.3516 31.6419 95.3047 31.3086C95.0182 31.6836 94.6068 32.0091 94.0703 32.2852C93.5339 32.5612 92.9427 32.6992 92.2969 32.6992C91.5208 32.6992 90.8854 32.4648 90.3906 31.9961C89.901 31.5221 89.6562 30.931 89.6562 30.2227C89.6562 29.4466 89.8984 28.8451 90.3828 28.418C90.8672 27.9909 91.5026 27.7279 92.2891 27.6289L94.5312 27.3477ZM99.2344 21.7148H100.656V24.0508H101.992V25.1992H100.656V30.6602C100.656 30.9518 100.755 31.1471 100.953 31.2461C101.062 31.3034 101.245 31.332 101.5 31.332C101.568 31.332 101.641 31.332 101.719 31.332C101.797 31.3268 101.888 31.319 101.992 31.3086V32.418C101.831 32.4648 101.661 32.4987 101.484 32.5195C101.312 32.5404 101.125 32.5508 100.922 32.5508C100.266 32.5508 99.8203 32.3841 99.5859 32.0508C99.3516 31.7122 99.2344 31.2747 99.2344 30.7383V25.1992H98.1016V24.0508H99.2344V21.7148ZM104.242 29.793C104.284 30.2617 104.401 30.6211 104.594 30.8711C104.948 31.3242 105.562 31.5508 106.438 31.5508C106.958 31.5508 107.417 31.4388 107.812 31.2148C108.208 30.9857 108.406 30.6341 108.406 30.1602C108.406 29.8008 108.247 29.5273 107.93 29.3398C107.727 29.2253 107.326 29.0924 106.727 28.9414L105.609 28.6602C104.896 28.4831 104.37 28.2852 104.031 28.0664C103.427 27.6862 103.125 27.1602 103.125 26.4883C103.125 25.6966 103.409 25.056 103.977 24.5664C104.549 24.0768 105.318 23.832 106.281 23.832C107.542 23.832 108.451 24.2018 109.008 24.9414C109.357 25.4102 109.526 25.9154 109.516 26.457H108.188C108.161 26.1393 108.049 25.8503 107.852 25.5898C107.529 25.2201 106.969 25.0352 106.172 25.0352C105.641 25.0352 105.237 25.1367 104.961 25.3398C104.69 25.543 104.555 25.8112 104.555 26.1445C104.555 26.5091 104.734 26.8008 105.094 27.0195C105.302 27.1497 105.609 27.2643 106.016 27.3633L106.945 27.5898C107.956 27.8346 108.633 28.0716 108.977 28.3008C109.523 28.6602 109.797 29.2253 109.797 29.9961C109.797 30.7409 109.513 31.3841 108.945 31.9258C108.383 32.4674 107.523 32.7383 106.367 32.7383C105.122 32.7383 104.24 32.457 103.719 31.8945C103.203 31.3268 102.927 30.6263 102.891 29.793H104.242ZM112.484 30.1914C112.484 30.5977 112.633 30.918 112.93 31.1523C113.227 31.3867 113.578 31.5039 113.984 31.5039C114.479 31.5039 114.958 31.3893 115.422 31.1602C116.203 30.7799 116.594 30.1576 116.594 29.293V28.1602C116.422 28.2695 116.201 28.3607 115.93 28.4336C115.659 28.5065 115.393 28.5586 115.133 28.5898L114.281 28.6992C113.771 28.7669 113.388 28.8737 113.133 29.0195C112.701 29.2643 112.484 29.6549 112.484 30.1914ZM115.891 27.3477C116.214 27.306 116.43 27.1706 116.539 26.9414C116.602 26.8164 116.633 26.6367 116.633 26.4023C116.633 25.9232 116.461 25.5768 116.117 25.3633C115.779 25.1445 115.292 25.0352 114.656 25.0352C113.922 25.0352 113.401 25.2331 113.094 25.6289C112.922 25.8477 112.81 26.1732 112.758 26.6055H111.445C111.471 25.5742 111.805 24.8581 112.445 24.457C113.091 24.0508 113.839 23.8477 114.688 23.8477C115.672 23.8477 116.471 24.0352 117.086 24.4102C117.695 24.7852 118 25.3685 118 26.1602V30.9805C118 31.1263 118.029 31.2435 118.086 31.332C118.148 31.4206 118.276 31.4648 118.469 31.4648C118.531 31.4648 118.602 31.4622 118.68 31.457C118.758 31.4466 118.841 31.4336 118.93 31.418V32.457C118.711 32.5195 118.544 32.5586 118.43 32.5742C118.315 32.5898 118.159 32.5977 117.961 32.5977C117.477 32.5977 117.125 32.4258 116.906 32.082C116.792 31.8997 116.711 31.6419 116.664 31.3086C116.378 31.6836 115.966 32.0091 115.43 32.2852C114.893 32.5612 114.302 32.6992 113.656 32.6992C112.88 32.6992 112.245 32.4648 111.75 31.9961C111.26 31.5221 111.016 30.931 111.016 30.2227C111.016 29.4466 111.258 28.8451 111.742 28.418C112.227 27.9909 112.862 27.7279 113.648 27.6289L115.891 27.3477ZM123.844 31.4727C124.5 31.4727 125.044 31.1992 125.477 30.6523C125.914 30.1003 126.133 29.2773 126.133 28.1836C126.133 27.5169 126.036 26.944 125.844 26.4648C125.479 25.543 124.812 25.082 123.844 25.082C122.87 25.082 122.203 25.569 121.844 26.543C121.651 27.0638 121.555 27.7253 121.555 28.5273C121.555 29.1732 121.651 29.7227 121.844 30.1758C122.208 31.0404 122.875 31.4727 123.844 31.4727ZM120.203 24.0898H121.57V25.1992C121.852 24.819 122.159 24.5247 122.492 24.3164C122.966 24.0039 123.523 23.8477 124.164 23.8477C125.112 23.8477 125.917 24.2122 126.578 24.9414C127.24 25.6654 127.57 26.7018 127.57 28.0508C127.57 29.8737 127.094 31.1758 126.141 31.957C125.536 32.4518 124.833 32.6992 124.031 32.6992C123.401 32.6992 122.872 32.5612 122.445 32.2852C122.195 32.1289 121.917 31.8607 121.609 31.4805V35.7539H120.203V24.0898ZM132.75 31.4727C133.406 31.4727 133.951 31.1992 134.383 30.6523C134.82 30.1003 135.039 29.2773 135.039 28.1836C135.039 27.5169 134.943 26.944 134.75 26.4648C134.385 25.543 133.719 25.082 132.75 25.082C131.776 25.082 131.109 25.569 130.75 26.543C130.557 27.0638 130.461 27.7253 130.461 28.5273C130.461 29.1732 130.557 29.7227 130.75 30.1758C131.115 31.0404 131.781 31.4727 132.75 31.4727ZM129.109 24.0898H130.477V25.1992C130.758 24.819 131.065 24.5247 131.398 24.3164C131.872 24.0039 132.43 23.8477 133.07 23.8477C134.018 23.8477 134.823 24.2122 135.484 24.9414C136.146 25.6654 136.477 26.7018 136.477 28.0508C136.477 29.8737 136 31.1758 135.047 31.957C134.443 32.4518 133.74 32.6992 132.938 32.6992C132.307 32.6992 131.779 32.5612 131.352 32.2852C131.102 32.1289 130.823 31.8607 130.516 31.4805V35.7539H129.109V24.0898Z" fill="white"/>
</svg>
